<?xml version="1.0" encoding="utf-8"?>
<!-- Generator: Adobe Illustrator 19.0.0, SVG Export Plug-In . SVG Version: 6.00 Build 0)  -->
<svg version="1.1" id="レイヤー_1" xmlns="http://www.w3.org/2000/svg" xmlns:xlink="http://www.w3.org/1999/xlink" x="0px"
	 y="0px" viewBox="-3120 3244.2 24 24" style="enable-background:new -3120 3244.2 24 24;" xml:space="preserve">
<g transform="translate(0, 0)">
	<path d="M-3100.3,3248.5c-0.4-0.4-1-0.4-1.4,0l-6.3,6.3l-6.3-6.3c-0.4-0.4-1-0.4-1.4,0c-0.4,0.4-0.4,1,0,1.4l6.3,6.3l-6.3,6.3
		c-0.4,0.4-0.4,1,0,1.4c0.2,0.2,0.4,0.3,0.7,0.3s0.5-0.1,0.7-0.3l6.3-6.3l6.3,6.3c0.2,0.2,0.5,0.3,0.7,0.3s0.5-0.1,0.7-0.3
		c0.4-0.4,0.4-1,0-1.4l-6.3-6.3l6.3-6.3C-3099.9,3249.5-3099.9,3248.9-3100.3,3248.5z"/>
</g>
</svg>
