<svg xmlns="http://www.w3.org/2000/svg"  xmlns:xlink="http://www.w3.org/1999/xlink" data-zoom="13.997659062122" height="259" width="296" data-main="1">
<svg y="-20" x="-32" xmlns="http://www.w3.org/2000/svg" width="350" height="350" viewBox="0 0 60 60" preserveAspectRatio="none">
  <path fill="#000000" d="M49,0H11A11,11,0,0,0,0,11V49A11,11,0,0,0,11,60H49A11,11,0,0,0,60,49V11A11,11,0,0,0,49,0Z" pattclass="000000"/>
</svg>

<svg y="13" x="19.5" xmlns="http://www.w3.org/2000/svg" xmlns:xlink="http://www.w3.org/1999/xlink" width="247.33333333333334" height="231.33333333333334" viewBox="-0.1237429183050497 0 363.1390728476822 339.7058823529411"><g id="0.009321073174853645"><text fill="#FF0000" stroke="none" stroke-width="0" stroke-linecap="round" stroke-linejoin="round" x="27" y="22.35937679515165" text-anchor="start" font-size="24px" font-family="ABeeZee" pattclass="none" data-textcurve="0" data-itemzoom="1 1"><tspan dy="0" x="0">HelloHelloHelloHelloHelloHello</tspan><tspan dy="24" x="0">HelloHelloHelloHelloHelloHello</tspan><tspan dy="24" x="0">HelloHelloHelloHelloHelloHello</tspan><tspan dy="24" x="0">HelloHelloHelloHelloHelloHello</tspan><tspan dy="24" x="0">HelloHelloHelloHelloHelloHello</tspan><tspan dy="24" x="0">HelloHelloHelloHelloHelloHello</tspan><tspan dy="24" x="0">HelloHelloHelloHelloHelloHello</tspan><tspan dy="24" x="0">HelloHelloHelloHelloHelloHello</tspan><tspan dy="24" x="0">HelloHelloHelloHelloHelloHello</tspan><tspan dy="24" x="0">HelloHelloHelloHelloHelloHello</tspan><tspan dy="24" x="0">HelloHelloHelloHelloHelloHello</tspan><tspan dy="24" x="0">HelloHelloHelloHelloHelloHello</tspan><tspan dy="24" x="0">HelloHelloHelloHelloHelloHello</tspan><tspan dy="24" x="0">HelloHelloHelloHelloHelloHello</tspan></text></g><defs></defs></svg>
</svg>