<?xml version="1.0" encoding="utf-8"?>
<!-- Generator: Adobe Illustrator 19.2.1, SVG Export Plug-In . SVG Version: 6.00 Build 0)  -->
<svg version="1.0"
	 id="Layer_1" image-rendering="optimizeQuality" text-rendering="geometricPrecision" shape-rendering="geometricPrecision"
	 xmlns="http://www.w3.org/2000/svg" xmlns:xlink="http://www.w3.org/1999/xlink" x="0px" y="0px" width="400px" height="765.6px"
	 viewBox="0 0 400 765.6" enable-background="new 0 0 400 765.6" xml:space="preserve">
<g id="Layer_x0020_1">
	<g id="New_x0020_BaseBall_x0020_Players_18.svg">
		<path fill="#212121" d="M399.8,744.4c0.3-1.9,0.3-3.5,0-5.4c-0.8-2.9-3.7-5.1-4-8.3c-0.3-2.1-0.3-4.8-2.4-5.9
			c-0.3-0.3-0.5-0.3-0.8-0.5c1.1-1.3,1.6-3.2,1.6-5.1c0.3-1.6-0.3-3.2-1.1-4.5c0.8-0.3,1.3-1.1,1.9-1.9c1.6-2.4-0.5-5.6-1.9-7.8
			c-2.4-3.2-5.6-5.6-8.3-8.3c-2.7-2.4-5.9-4.5-9.4-5.9c-0.3-0.5-0.5-1.3-0.8-1.9l0.3-0.3c0.3-0.5,0.5-0.8,0.8-0.8
			c0.3-0.5,0.5-1.1,0.3-1.6c-1.1-2.1-2.1-6.4-4.5-7.5c-0.3-2.4-1.6-4.8-2.4-7c-1.3-3.2-2.7-6.4-4-9.6c-2.4-6.4-5.1-12.6-8.3-18.7
			c-1.6-2.7-3.2-5.6-4.8-8.6l0,0c-0.8-2.9-1.1-5.9-2.4-8.6c-0.8-1.6-2.1-3.2-3.5-4.3c-0.3,0-0.5-0.3-0.8-0.3c0-0.5-0.3-1.1-0.5-1.9
			c-0.5-2.4-2.4-4.8-3.7-7c-0.5-1.1-1.3-2.1-2.1-3.2c-0.5-1.3-1.3-2.7-2.1-4c-1.3-2.1-2.7-4.3-4.3-6.2s-2.9-3.7-4.3-5.9
			c-1.3-1.9-2.7-3.7-4.3-5.4c-0.8-0.5-2.1-1.9-3.5-2.9c-0.3,0-0.3,0-0.3,0c-1.3-2.9-2.7-5.1-5.4-6.7c-1.3-0.8-2.7-1.3-4-1.6
			c0,0,0,0,0-0.3c0.5-1.3,0.3-2.7-0.8-4c-0.5-0.5-1.1-1.1-1.6-1.6c-0.5-0.3-1.6-0.3-2.1-0.8c-0.3-2.7-2.1-5.9-5.1-6.2
			c-0.3-0.8-0.8-1.3-1.3-1.9l0,0c0.3-1.3,0.3-2.7-0.3-4c-1.1-1.6-3.2-1.9-5.1-1.9c-0.3-1.9-1.6-3.5-3.2-4.5c0.3-1.3,0.5-2.7,0.3-4
			c-1.1-4-3.2-4.3-5.4-12.3c-4.5-16.1-15.3-43.4-26.8-55.9c-3.7-3.7,1.1-1.9-5.9-7c-3.2-2.1-2.4-4.8-5.6-8c1.3-4.8,0-4.5-2.4-8
			c0.5-0.8,0.3-0.8,0.5-1.1c-3.2-6.7-6.2-2.1-9.6-8.8c-0.3-2.1-2.1-4-2.9-9.1c-0.8-3.7-4.5-9.1-7-12.3c-1.9-2.4,0.5-2.1-3.7-4.5
			c0.8-4.8-1.9-13.1-4.3-16.9c-1.3-2.1-0.8-1.1-1.1-2.1c4.5-5.4,3.2-26.2,4.8-35.1c0-0.8,0-1.6-0.3-2.7c0-0.5,0.8-0.8,1.1-1.3
			c0.5-1.1,0.5-1.9,0.5-2.7c-0.3-1.6,0-2.1,1.1-3.2c1.1-1.3,0.8-2.7,0-4c1.1-1.3,2.4-2.7,3.2-4.3c4.8-4.5,5.1-13.6,6.2-19.5l0.5-2.4
			l0.8-2.7c2.1-8.6,7.2-9.4,11.8-17.1c5.1-8.6,5.4-15.8,4.3-25.7c-0.8-8.8-3.7-12.3-11-16.9l-1.3-0.8c-4.8-2.9-7-5.1-10.7-8.6
			c-1.1-1.1,0-0.8,0.8-2.7c0.3-1.1,0-2.7-0.8-3.7c0.3,0,0.3,0,0.3,0c0.8-0.3,2.1-0.8,2.1-1.6c0.3-0.8,0-1.6-0.3-2.4v-0.3
			c0-0.8-1.1-3.2,0.5-3.5c1.6,0,2.9-1.1,3.2-2.7c0.3-2.1-1.1-3.7-1.9-5.4c-0.8-1.9-1.6-3.7-2.4-5.6c2.1,0.3,4,0.3,6.2,0.3
			c0.5,0,1.1,0,1.6,0c7.5-0.3,11.5-4,12.6-7c0.8-1.9,0.5-3.5-0.5-4.8c-1.3-1.3-6.4-3.7-12-6.2c-1.3-0.5-2.7-1.1-3.2-1.3
			c-0.3-1.1-0.5-2.9-1.1-4.8c-0.5-3.7-1.3-8.3-1.9-10.4c-1.3-3.7-4-12.3-19.5-16.3c-4.8-1.3-10.2-1.9-15.5-1.9
			c-8.6,0-17.4,1.6-24.6,4.5c-9.9,4-15.3,10.4-16.1,19.5c-0.3,2.9-2.1,23.5-2.4,27.8c-0.3,4,0.8,5.6,2.4,6.7c-2.7-0.3-5.4-0.3-8,0
			c-2.4,0-4.8,0.5-7,1.6c-0.3,0.3-0.5,0.3-0.8,0.5c-2.7-1.9-7,0.5-9.1,2.1c-1.1,0.5-1.9,1.1-2.9,1.1c-0.5,0-1.1,0-1.6,0.3l0,0
			c-0.5-0.5-1.3-1.1-1.9-1.1c-0.8-0.3-1.6,0-2.4,0.3c-0.8-1.3-2.4-1.6-4-1.3c-0.8,0.3-1.9,0.8-2.7,1.1c-0.3,0.3-0.5,0.5-0.5,0.5
			c-1.9-1.1-4.3-1.6-6.2-1.9c-1.6,0-3.7,0.3-5.1,1.1c-1.1,0.5-2.4,0.5-3.5,1.1v-0.3c-0.3-1.1-1.3-2.1-2.1-2.9c-0.3,0-0.3,0-0.3,0
			c7-15.3,43.1-89.9,50.8-105.7c8-16.6,49.2-103,53.3-114.8c2.4-6.4-1.9-11.5-7-13.6C189.2-1.1,182-0.3,179,5.6
			c-3.2,6.4-37.7,83-50.6,116.7c-13.4,34-37.2,91.8-45,108.7c-0.5,0-1.1-0.3-1.6-0.3c-2.1-0.5-4.5-0.8-6.7-0.3
			c-1.3,0.5-3.2,2.1-3.2,3.5h-0.3c-0.8,0.3-1.6,0.8-2.4,1.3c-0.5,0.5-0.8,1.3-1.1,2.1c-0.5,1.1-0.8,2.1-1.6,3.5
			c-0.8,1.6-1.6,3.2-2.1,4.8c-0.3,1.1-0.5,1.9-1.1,2.9c-1.3-0.3-2.7-0.5-4-1.1c-1.9-0.5-3.7-1.1-5.6-1.3c-1.6-0.3-3.5,0-4.8,0.8
			c-0.5,0.3-0.8,0.5-1.3,0.5c-2.7,0,0,0.8-3.5-0.3c-3.5-1.3-4,0.8-4,3.2c-4.8-2.1-14.7-4-17.4,2.4c-1.9,4-5.4,4.3-9.1,9.4l-0.5,0.8
			c-2.4,3.5-5.1,5.9-7.5,9.4c-0.8,0.8-1.3,1.6-2.1,2.7c-2.1,2.4-4.5,5.6-2.9,8.8c1.1,1.6,2.7,2.9,4,4c1.6,1.6,2.9,3.2,4.8,4.5
			c1.9,1.3,4,2.1,6.2,2.7c1.1,0.3,2.4,0.5,3.5,0.8c0.5,0,0.8,0,1.3,0c3.2,1.1,6.2,1.3,9.6,1.3c3.2-0.3,6.7-0.8,9.9-1.6
			c1.9-0.3,3.5-0.8,5.1-1.3c1.6-0.3,3.5-0.3,5.1-0.5h0.3c1.1,1.1,3.7,1.6,4.8,0.5c0.3,1.6,1.6,2.9,2.9,4c1.9,1.6,4.3,2.4,6.7,2.7
			c2.4,0.3,5.1,0,7.2-1.3c0.3,0,0.5-0.3,0.8-0.5c0,0,0,0,0,0.3c1.3,1.9,3.7,2.9,5.6,3.7c2.4,1.1,5.1,2.1,7.5,2.4
			c0.3,0,0.3-0.3,0.5-0.3c0.5,0.8,1.1,1.3,1.9,1.6c0,0.3,0,0.3,0,0.5c1.1,3.2,0.3,7.2,0.8,10.4c0.8,4.8,2.1,8.8,4,13.1
			c0.8,1.9,1.3,3.7,2.1,5.4c-0.5,2.1-0.8,4.3-1.3,6.2c-0.5,2.9-0.8,5.6-0.8,8.3c0,5.9,1.1,11.5,2.1,17.1c0.5,3.7,1.3,7.5,2.4,11.2
			c0,1.3,0,2.7,0,4.3c0,7,1.3,20.3,6.2,25.4c5.6,5.6,5.6,2.1,3.2,9.1c-1.6,4.3-0.5,5.1,1.9,8c-0.3,0.5-7,2.4-6.7,7.5
			c0.3,4.8-1.1,1.3-3.7,5.1c-1.1,1.9-0.8,3.2,0,5.1c-0.5,0.3-1.1,0.5-1.3,1.1c-0.8-0.3-1.3-0.3-2.4,0.3c-0.8,0.5-1.3,1.6-1.6,2.7
			c-0.3,1.1-0.3,2.4,0,3.7c0,0.3,0,0.8,0.3,1.1c-1.3,0.5-2.4,1.3-3.2,2.4c-2.7,7.5-5.1,2.9-5.4,9.6c0,0.5-16.3,21.4-18.5,24.9
			l-1.6,2.1c-13.6,21.1-15.5,35.9-22.7,58.3c0,0.8-0.3,1.3-0.5,2.1c-0.3,0.8-0.8,1.9-1.3,2.7c-1.1,2.7-1.9,5.6-2.9,8.3
			c-1.1,2.7-2.1,5.6-2.7,8.6c-0.5,3.2-0.5,6.4-0.5,9.4c-0.5,6.7-2.4,13.1-3.2,19.5c-0.8,4.5-0.8,11,2.1,15.3c0,1.1,0,2.1,0,2.9
			c0,2.4,0,4.8,0.3,7.5c0.3,3.7,0.8,7.5,1.1,11.5c0.5,3.5,0.5,7.2,1.3,11c0.8,3.2,0.8,6.7,1.6,10.2c0.3,2.7,1.1,5.1,1.9,7.8
			c0,0,0,0,0,0.3c0,0.5,0,1.3,0.3,2.1c0.3,2.1,0.3,4.5,0.5,7c0.3,4.3,1.3,8.6,1.6,13.1c0.3,4-0.3,8,0.3,12c0.3,3.5,1.1,7.2,2.4,10.4
			c1.1,2.7,3.7,3.2,6.2,3.2c-0.3,0.5-0.5,1.1-0.8,1.6c-0.3,0-0.8,0.3-1.1,0.3c-2.4,1.3-4.5,3.2-6.2,5.6c-1.6,2.7-2.7,5.6-4.5,8.3
			c-0.8,1.1-2.4,2.4-2.4,4c-0.3,0-0.3,0.3-0.5,0.5c-1.3,1.1-2.4,2.1-3.5,3.5c-0.5,0.5-0.8,1.3-1.1,1.9c-0.3,0.3-0.5,0.5-0.5,0.8
			c-0.8,0.5-1.3,1.1-2.4,1.6c-2.4,1.1-5.1,1.9-7.8,3.2c-2.1,0.8-4.3,1.9-5.6,3.7c-0.8,1.1-0.8,1.9-1.1,2.9c0,0.8,0,1.6-0.5,2.1
			c-0.3,0.5-0.5,0.8-0.8,1.3c-1.3,4.5,2.4,7.2,6.4,7.8c1.9,0.5,3.7,0.5,5.9,0.8c2.9,0.5,6.2,0.8,9.4,0.8c5.9,0,11.8-0.8,17.7-2.1
			c2.4-0.5,4.8-1.3,7.2-2.4c1.3-0.8,2.9-1.6,4.5-2.1c0,0.3,0.3,0.3,0.5,0.3c2.7,0.3,5.1,1.6,7.8,0.8c0.3,0,0.3,0,0.5,0
			c2.4,0.3,4.8-1.1,7.2-1.9c1.6-0.3,3.5-1.1,5.1-1.6c1.6-0.8,3.2-1.3,4-2.9c0.3-0.3,0.3-0.3,0.3-0.5c1.3-2.7,2.1-7.8-0.3-9.9
			c0.5-1.6,0.8-3.2,0.8-4.8c0.5-3.2,0.5-6.7,0.3-9.9c-0.3-3.2-1.1-6.2-2.1-9.1c-0.5-2.7-0.5-5.4-1.1-8c2.9-1.1,5.6-3.7,5.9-7
			c0-0.5-0.5-1.3-1.1-1.3c-0.8-0.3-1.6-0.5-2.4-0.5c-0.8-0.3-1.6-0.3-2.1-0.5c-0.3-1.1-0.3-2.4-0.3-3.5c0.3-2.7,0.8-5.6,0.8-8.3
			c0.5-4.8,0.3-9.9-0.5-14.5c-0.3-2.9-1.1-5.6-1.3-8.6c-0.3-0.3,0.3-2.1,0-3.2c0,0,0-0.3,0-0.5l0.5-2.4c1.1-7.5-2.7-8.3-0.8-14.2
			c2.7-7.5,5.1-23.3,2.9-30.5c-1.3-4.5-1.3-3.5-1.6-8.3c-0.3-3.2-0.8-3.5-2.7-5.9c-3.5-3.5,0.5-2.1-1.6-7.2l-0.3-0.5
			c0.8-1.3,2.4-0.5,2.1-4.3c-0.3-2.9,3.5-2.4,6.7-4.3v-0.8l-0.8-1.1c-2.1-3.5,0.8-5.6,3.5-7.8c20.3-14.7,35.1-21.9,49.5-43.4
			c1.9-2.1,4.3-6.4,7.2-7.5c1.6-0.8,3.5-4.3,8.6-7c3.5-1.6,8.3-2.9,11.8-3.5c0.8,1.3,24.1,18.7,28.1,22.5c11,11,24.4,13.1,40.4,30.5
			c3.5,4.3,2.7,2.9,6.4,7c2.7,2.9,5.6,5.6,8.6,8.3c3.2,2.7,6.4,5.1,9.1,7.8c2.4,2.1,3.2,5.1,5.6,7c0.5,0.3,1.1,0.5,1.6,0.8
			c0,0,0,0,0,0.3c0.3,1.6,1.6,3.2,2.9,4.3l0.8,1.1c3.7,3.5,4.5,8.3,8.8,11.5c2.1,4.3,2.1,10.2,4.8,16.1c3.7,7.5,3.7,12,12.6,16.1
			c0.3,0.3,0,0.3,0.3,0c2.9,2.4,2.7,8,8.8,11.8c0.8,0.5,1.9,1.1,2.9,1.3c1.1,1.1,2.1,2.1,3.5,3.2c-1.3,1.9,0.3,4.5,1.3,6.7
			c0.5,1.6,2.1,4.5,4.3,4.5c1.9,4,4.3,8,7,11.8c1.6,2.1,3.2,4,4.5,6.2c0.8,1.6,1.3,2.9,2.4,4.5c-1.1,2.4,2.7,5.4,3.7,7.2
			c0.8,1.1,0.5,2.7,2.1,3.7l0,0c0,1.1-0.3,1.9-0.3,2.9c0.3,1.9,0.5,4,0.5,5.9c0.3,2.7,0.5,5.1,1.3,7.5c0.3,1.9,1.1,4.5,2.4,6.2
			c0,0.3,0,0.5,0.3,0.5c-0.5-0.5,0,0.5,0,0.5c0.3,0.5,0.5,0.8,0.8,1.1c0.5,0.5,1.1,1.1,1.9,1.3c1.1,3.5,4.3,5.1,7.8,4.8
			c0.3,0,0.3,0,0.5,0c-0.3,1.1-0.5,2.1-0.5,3.2c-0.3,2.1,0.8,4.3,1.9,6.2c-1.6,2.1,0,5.9,2.4,7.2c0.8,2.7,3.2,2.9,5.6,3.2h0.3
			c1.1-0.3,2.7-0.8,3.7,0c0.3,0.5,0.5,0.8,0.8,1.1c0,0.3,0.3,0.3,0.3,0.3c0.8,0.5,1.9,1.1,3.2,1.1c1.3,0,2.4-0.5,3.5-1.1
			c0.3,0,0.5,0,0.8,0c0-0.3,0-0.3,0-0.3c0.5-0.5,0.5-1.6,1.3-1.6s1.6,0,2.1,0c0.8,0.3,1.6,0,2.1,0.5c0.3,0.3,0.3,0.3,0.5,0.5
			c1.1,0.3,1.9,0.5,2.9,0.3c0.8-0.3,1.6-0.3,2.4-0.8l0,0c0.8-0.3,0.5-0.8,1.1-1.1c0.5-0.5,1.9,0,2.4,0c1.1,0,1.9-0.3,2.9-0.3
			c1.3-0.8,2.7-1.9,2.4-3.2c1.6-1.3,2.1-3.5,1.9-5.9C399.8,747.4,399.5,746,399.8,744.4L399.8,744.4z"/>
		<path fill="#FFFFFF" d="M233.1,301.8c-4.3-0.8-11-2.4-15-2.1c2.9,2.4,18.5,5.6,23.3,3.7c2.1-0.8,3.2-2.1,3.7-2.7
			C239.8,303.1,239,302.6,233.1,301.8z M163.2,441.5v0.3V441.5z M242.4,280.9c-13.1-5.4-16.6-2.4-29.2,0c-3.2,0.8-6.4,0-9.6,1.1
			c13.1,1.3,15.8-3.5,33.7-1.3C239.2,280.9,240.6,280.9,242.4,280.9z M245.7,296.2l-2.1,1.6c-8.6,5.6-16.1-5.9-24.9-7.8
			c-4.3-0.8-8.8-1.6-12.8-1.9c2.7,1.6,5.6,2.7,8.3,4c6.2,3.5,20.6,10.4,27.6,9.9C244,301.3,245.7,298.6,245.7,296.2z M222.4,277.2
			c9.1-1.6,13.6,0,18.7-0.8c-0.3,0-1.1-0.5-1.1-0.5c0.3,0,0.3,0,0.3,0c-9.6-5.4-16.6,0.3-26.5,2.1l2.4-1.3
			c-2.1,0.3-12.3,3.5-13.9,4.8C204.4,281.7,219.2,278,222.4,277.2z M243.8,294c-4,0.3-8.3-0.3-11,0
			C237.4,297.8,239.8,297.5,243.8,294z M212.2,276.6c5.6-2.1,9.4-1.9,15-3.5c-6.4-1.1-20.1,2.4-24.6,6.7
			C205,279.6,209.8,277.7,212.2,276.6z M204.2,412.1c0-9.6,1.9-8-0.8-19.3c-1.1-3.2-0.3-8.3-1.9-10.4c-0.3,0,0.3,0-0.5,0.3
			c0.3,11.2,0.5,23.8-5.6,33.7c-0.5,0.5-0.5,0.3-1.6,0.8c2.7-4.3,5.9-9.6,3.2-14.7h-1.1c-2.4,6.4,3.5,4.8-2.9,11.5
			c-2.7,2.7,1.3,4.3-2.9,1.6l-0.8-0.3c-6.2,3.7-4-0.5-4.5-5.6c-2.9-1.6-5.9,5.9-5.6,8.3c0.5-0.3,3.2-2.1,3.5-0.5
			c-6.4,1.3-3.5,1.6-7.2,3.2c-0.8-0.5-0.5-5.1-0.3-6.2c1.9,1.3-0.3,2.7,1.6,5.4c2.9-8.3,0-26.5-1.6-35.3c-1.3-9.4-2.4-18.7-2.1-28.4
			c0-5.1-0.8-7.2,4-6.4c1.1,2.9,2.1,5.6,3.2,8.3l2.7,9.6c5.4,17.4,8.6,24.1,9.1,43.1c3.2-10.7-4-31.6-7-41.7c2.9,1.6,3.5,5.9,8.6,8
			c2.1-3.7-1.1-13.6-2.1-17.9c-1.6-6.7-2.9-11.8-0.8-18.7c3.7-2.4,1.9,6.4,1.9,8.8c-0.3,5.1-0.3,8,0.8,13.1c1.1,3.2,5.1,14.7,8,16.3
			c1.3-2.9,0.3-11-0.5-13.9c-1.1-2.9-4.8-7.8-3.5-11.2l1.9,4c7.8,17.9,10.4,15,14.2,36.1c0.3,0.3,0.3,0.3,0.5,0
			c-1.3-19.5-2.7-17.1-11-33.2c-3.5-7.8-2.1-11-3.7-15.5c0.3-0.3,4,0.8,4.8,0.8c0.5,1.1,2.7,12.8,4,16.3c3.2,9.6,5.1,11.2,6.2,21.9
			c0.3,2.9-0.3,6.4,1.6,8.6c5.9-8.8-1.9-19.3-2.9-27.6c0-1.3,0.8,0,1.1,0.5c8,17.4,3.7,17.1,0.5,36.1c-0.3,1.1-0.5,1.9-1.3,2.9
			c0.3-0.8,1.1-2.1,0.5-2.9C211.1,407.8,209.8,408.8,204.2,412.1z M102.5,355.1c1.3,2.9,1.9,6.2,2.9,9.1c1.6,4,3.5,8,4.8,12
			c0.3,1.6,0.5,3.2,1.1,4.8c3.7,13.4,12.8,28.1,22.5,38c-7.5-4-17.9-21.9-20.6-30c-1.1-3.2-2.4-6.2-3.5-9.4s-1.9-6.4-2.7-9.9
			c-1.6-4.8-6.7-13.4-6.2-18.5c0.5,1.3,1.1,2.4,1.6,3.5V355.1z M114.8,387.4l1.6,3.7C115.9,389.8,115.3,388.5,114.8,387.4z
			 M99.5,247.7c0-0.3,0-0.8,0-1.1l0.8,1.1c-0.5,0.5,0.5,2.1,0.5,2.4c1.1,7.8-1.3,22.2-3.2,28.1c-0.3,0,0,0-0.3,0l0,0
			c1.9-7.2,2.1-15.5,2.9-22.7C100.6,252.8,100.6,250.1,99.5,247.7z M135.9,250.7c0.8,0,1.3,0.3,2.1,0.8c-1.6,1.1-0.3,4.8-1.6,8.8
			c-0.5,1.9-2.1,8-1.6,9.9c0.5,1.9,4.8-11.5,4.8-12c0.3,1.1-2.1,14.2-2.7,14.2c-2.7,0-0.3,3.7-1.3,5.6c-1.1-2.1-1.1-7-1.6-5.4
			c-2.1,6.2-0.3,13.4-1.3,20.9c0,0.5,0.8,0.8,1.1,0.3c1.3-2.7,2.1-5.6,2.9-8.6c0.8-3.2,2.4-6.2,3.2-9.1c1.6-6.4,1.6-13.4,1.9-19.8
			c0.8-3.7-1.6-1.3-2.7-2.9c-0.3-0.5-0.3-1.1-0.3-1.3c1.1,0.8,2.1,1.3,3.7,1.3c0.3,1.9-1.1,5.1,0.3,6.7c1.1,1.1,1.6-4.3,1.9-4.8
			c0.3-3.7,2.9-5.4,6.4-6.2c-2.1,2.4-2.1,8.3-3.2,11.5c-0.8,2.9-2.9,7.8-0.8,10.7c1.3,1.9,2.4,1.3,2.4-0.8c0.3-4,1.9-7.5,2.9-11.2
			c1.1,9.9,4,10.4,4.3,20.6c0.3,3.7,0.5,7,1.1,10.7c-1.3-6.7-1.9-16.9-3.2-21.1c0,0-0.5,0-0.5,0.3c0.3,1.3,0.3,2.7,0.3,4l0.8,8.3
			c0,2.4,0.8,11.8,1.9,12.8c1.1-0.3,0.8-2.1,0.8-2.9c0.3,2.1,0.5,3.5,0.5,5.6c0.3,0.3,0.3,0,0.5,0.3c-0.3,0.8-2.7,0.3-2.9,0
			c-0.3-3.2,0.5-4.5-0.8-8.3c0-0.5,0.5-6.2-1.6-3.7c-0.3,0.5-2.1,2.1-2.1,2.1c-1.9-2.4,1.1-8,0.8-7.8c1.1-3.5-2.7,4.3-2.7,6.2
			c0,1.6,1.1,2.9,1.9,4.5c-5.6-3.2-0.8-0.5,1.1,3.2c-2.7,0.5-3.2-3.2-4.5-2.9c-0.3,2.1,1.1,5.1,0.5,6.4c-2.4,0-5.4-0.8-8.6-0.8
			c1.6-2.1,2.1-10.2,2.4-13.1c0.3-2.7,3.7,1.3,4.3,2.4c0,0,1.3,5.9,1.6,3.7c0.5-3.7-3.7-12.3-6.2-10.2c-1.3,1.1-2.7,5.9-3.5,7.5
			c-1.6,4-5.9,9.6-5.9,9.9l-3.5-0.8c1.1-2.9,0.8-5.9,0.5-9.1c0-1.9,1.3-8,0.3-11c0-0.3-0.5-0.3-0.5-0.3c-0.8,1.3-1.1,2.7-1.6,4
			c-0.5,2.1-3.2,3.7-1.1,5.9c5.6,5.4-0.5,3.7-2.9,4.8c-0.8,0.3-2.7,1.6-2.7,2.9l-3.2-1.3c2.4-0.8,5.4-3.5,4.8-5.6
			c-0.5-2.9-2.4-2.9,2.1-6.2c5.4-4,1.9-6.7,2.7-7.8c1.1-1.3,1.1-3.5,1.9-5.1c0.3,1.6,0,3.2,0.3,4.5c0,0.5,0.5,0.5,0.5,0.3
			c0.5-2.7,0.5-5.1,1.3-7.5c1.6-4.3-0.3-6.2-1.9-11.2c-2.4-7.5-4.8-3.2-2.9,3.7c0.5,1.6,0.8,3.7,1.9,4.8c0.8,1.1-0.8,4-2.4,2.4
			c-0.5-0.8-1.1-4-1.9-2.1h-0.3c-1.1,10.4-0.8,6.2-5.1,13.9c-1.1,2.4-1.6,4.8-2.7,7.2c-1.1,2.1-3.2,4.3-4.8,6.2
			c-1.1-0.5-2.4-0.8-3.5-1.3c1.9-2.4,4,0.5,9.1-11.5c0.8-2.1,0.8-4-1.6-2.1c-1.6,1.3-2.1-0.3-1.3-1.6c2.7-4,1.6,6.4,6.7-9.4
			c0.5-1.1,2.4-6.4,0-6.4c-1.3,0-0.5,6.4-3.7,7.5c-8.3,3.5-7.5,11.8-11.8,11.5c-2.1-0.3-1.9-2.9-0.5-4.3c1.1-1.1,2.1,0.8,6.7-4.3
			c1.3-1.6,4.3-4.3,4-7c0-0.3-2.4-4.5-2.4-2.7c-5.4,2.4-7,8-9.1,12.8c-2.7,5.4-6.2,8-4,2.9c0.8-1.6,1.9-0.5,2.7-1.3
			c0.8-1.1,1.1-4,2.7-7c0.3-0.5,1.1-1.3,0.8-2.1c-0.5-1.9-4.5-2.4-5.9,1.3c0.5-4.3,2.4-11,0.8-15.3l0,0c5.4-2.7,11.2,0.8,16.6,0
			c1.6-0.3,2.9,0,4.5,0c4.3,0,1.9-2.7,8,0.8C131.9,251.2,134.1,250.1,135.9,250.7z M133.5,249.6c0.3-0.3,0.3-0.5,0.3-0.8
			c3.7-1.3,4.8,1.6,7.8,2.4c0.5,0.3,0.5,0.8,0.8,1.1C138.6,252.3,137.8,248.8,133.5,249.6z M196.7,281.5c-0.3,0.3-0.3,0.3-0.5,0.5
			c0.3-2.1,4-5.4,5.9-6.7C201.5,275.8,198,279.9,196.7,281.5z M196.9,279.1c-1.6,1.9-2.1,2.9-3.5,4.8c3.5-7.5,6.2-14.2,14.2-17.9
			C204.2,268.1,199.4,275.8,196.9,279.1z M203.9,266.5c-6.2,6.7-7.2,10.7-12,17.7c3.5-6.4,5.4-9.9,9.4-15.8l0,0l-1.3,1.6
			c-4.8,5.9-6.2,8.8-9.9,14.7c-0.5,0.3-0.3,0-0.5,0.3c1.1-5.4,8.3-17.1,13.9-18.7C203.6,266.2,203.6,266.5,203.9,266.5z M195.9,271
			c-4.3,6.7-4.3,8.6-7.5,14.5c0,0,0,0,0,0.3c0.3-3.2,6.4-14.5,8.8-16.9v0.3C196.9,270,196.4,270.5,195.9,271z M192.9,273.2
			c-1.9,3.7-4.8,12.3-8,13.9c0-3.2,8.3-18.5,11-18.5L192.9,273.2z M183.8,285.7c-3.5,4.3-5.1,7.5-9.6,10.7c3.5-6.7,7-13.1,12.8-17.9
			c-0.8,2.4-4.5,5.9-6.2,8.6c1.3-1.9,2.4-3.5,4.5-4.8l0.3,0.3C185.2,283.9,184.6,284.4,183.8,285.7z M183.8,287.3
			c-0.5,0.8-0.8,1.3-1.6,1.6L183.8,287.3z M171.8,298.3c-0.3,0.3-0.3,0.3-0.3,0.3c-0.3,0.3-1.9,0.3-2.1,0c0.5-2.1,6.2-8.6,8-9.9
			C175,293,173.7,293.5,171.8,298.3z M192.1,271.3c-7.2,8.6-15.3,15.5-21.7,24.6c-1.9,2.4-1.6,2.7-4.3,2.9
			c-0.8-2.7,14.2-16.6,17.1-19.8c1.9-2.4,7-7,9.4-8.6C192.7,270.8,192.1,271,192.1,271.3z M176.6,281.5L176.6,281.5L176.6,281.5
			L176.6,281.5z M176.9,281.5L176.9,281.5L176.9,281.5L176.9,281.5z M173.4,285.7c1.6-1.6,7.5-7.5,9.1-7.5L160,298.9
			C161.1,296.7,171.5,287.1,173.4,285.7z M165.9,293.8c2.9-2.9,7.5-7.2,11-9.1c-4.5,4.5-8.8,7.8-13.6,12.8c-1.3,1.6-0.8,1.1-1.6,1.6
			c0,0,0,0-0.3,0C162.7,297.2,164.6,295.1,165.9,293.8z M154.4,248.3c0,5.6-0.5,11.5,1.3,17.1l2.7,8.3c1.1,5.4,0.3,11,1.3,16.9
			c0.3,1.9,1.1,4.8,0,6.4c-0.8-1.1-2.4-13.6-2.7-15.8c0-2.4,0.3-4.8,0-7.5c-0.3-4.3-4.5-8.8-3.7-21.7c0.3-3.7,0.5-7.8,2.4-11
			C154.7,243.2,154.1,246.1,154.4,248.3z M116.7,290.6c-0.3,0.3-0.3,0.8-0.3,1.1c-0.3-0.3-0.5-0.3-0.8-0.3c1.3-1.6,2.4-5.4,3.5-7.2
			C120.1,287.9,117.7,288.7,116.7,290.6z M218.6,342.2l-2.1-2.1c4.5,1.9,4.3,3.2,6.7,5.4c0-1.1-0.5-1.9-0.8-3.5l2.4,1.1
			c1.1-4.3-5.1-3.5-8.3-5.6c0.3-0.5,0.5-0.3,0.8-0.8c2.9-0.8,6.2,0.8,8.3,2.4c3.2-4-1.3-4.3,2.9-8.3c-0.3-1.9-3.2-0.8-4.3-0.5
			c2.9-2.4,3.7-2.7,5.6-5.9c0.5,1.1-2.1,14.5-3.2,16.9l-4.8,9.1c-1.9-3.2-4.3-8-7.8-9.6c0.3-0.3,0.3-0.5,0.5-1.1
			c0.5,0,6.7,5.9,7,6.2C221,344.3,219.4,343.3,218.6,342.2z M216,335c0.3-1.9,0.8-3.2,3.2-3.5C217.8,333.1,217.6,332.6,216,335z
			 M225.9,325.9c1.9-1.9,3.5-5.1,5.4-6.7c0,1.1-0.5,2.9-1.1,4h-0.3C228.5,324.3,227.5,324.8,225.9,325.9z M214.3,335.2l-0.3,2.1
			c-2.4,10.4-17.4,5.9-20.1,1.3c0.5,0,0.5,0.3,0.5,0c3.5,1.3,7.5,6.4,13.9,3.7c2.9-1.1,5.4-4.5,4.8-8c-0.8-6.7-10.4-22.2-14.7-26.2
			c-5.6-5.4-12.3-9.6-20.3-8.6c-0.5,0-1.3,0.3-1.9,0.5c10.2-5.1,18.2-0.5,25.7,7C209,314.4,215.7,325.3,214.3,335.2z M218.1,357.7
			l0.5,6.7c-1.1-5.4-2.1-7.5-3.7-12.6c-1.9-5.4-1.9-3.5-4-8c0.5,0,0.5-0.3,0.8-0.5c2.7,4.3,5.6,7.8,7.5,12.6
			c0.5,1.6,0.5,3.5,1.1,5.1c-0.3,0-0.3,0.3-0.5,0.3c-0.5-3.5-1.6-8.8-4.3-11.5C216.8,352.9,217.3,354.5,218.1,357.7z M217.8,370.3
			c-2.1-3.7-4.3-7.2-5.9-11.5c-1.3-4.8-1.6-9.1-4-13.4l0.3-0.3c0.5,0,1.3-0.5,1.6-0.3c2.4,1.6,3.2,5.6,4,8.3
			C217.3,363.1,216.5,360.1,217.8,370.3z M171.8,409.9c-1.9-2.4,1.6,7.2-4.8,7c-8-1.3-11.2-7-12-5.9c-2.1,3.5,8,7,4.3,9.6
			c-1.6,0.8-8.3-2.1-10.2,0.3c-0.8,1.1-0.5,1.6,0.3,1.9c-0.5,0-0.8,0-1.3,0.3c-0.3-2.4-1.3-4.5-2.4-6.7c2.9,2.1,2.1-5.9,5.1-4
			c3.2,2.4,2.7-3.2,1.9-2.9c0.5-1.6-0.3-3.7-1.9-4c2.1-2.4-5.9-2.9-6.7-3.2c-1.3-0.8,0.3,2.4,3.7,3.5c0,0,0,1.3-0.5,1.1
			c-0.8-0.5-3.5-2.9-4.5-1.9c-1.9-12,0.8-15.8,1.6-27c1.1,3.7,3.7,4.3,6.4,6.7c0.3,0,8,9.1,7.8,6.7c-0.5-3.2-6.2-8.6-8-11
			c-5.1-5.6-2.9-16.3-3.7-17.1c-0.3-3.5-0.5-3.7,0.3-7.8c0.3-1.6,1.3-8.8,4.3-7.2c0.5,0.5,0.5,1.3,0.3,1.9c-2.1,1.6-2.9,2.1-1.6,4.5
			c0.5,0.8,1.6,1.3,2.7,1.3c-4.5,3.2-4,5.9-3.2,5.1c1.3-1.3,3.2-2.1,4.5-2.9c1.9,6.2-3.7,20.9,4.8,26.8c1.6,1.3,7.5,4,4.8,6.7
			c-2.9,3.2-2.1-0.5-4.8,8.8c-0.3,1.3-1.6,4.8,0,5.9c1.1,0.5,5.1-4.5,5.9-5.4c2.9-4,1.6-9.1-0.8-13.1c-3.5-6.2-2.9-26.2,0.3-30.2
			c1.3-1.6,3.2,2.7,2.7,4c-3.5,18.2,0.5,20.1,0.5,23.3l0,0c0,0.5,0.8,0.3,0.5,0c-1.1-5.9-2.1-11.8-1.3-17.9c0,0.3,0,0.5,0,0.8
			l0.5-3.2c0,0.3,0,0.3,0,0.5c2.9-14.2-1.3-13.9-0.5-18.7c4.5,8.8,2.7,11,2.1,20.3c-0.8,14.5,5.9,51.4,4.5,54.3
			C171.5,417.9,172.6,413.9,171.8,409.9z M148,408.3c0-1.1,1.3-2.1,2.1-2.1c2.4-0.3,2.4,5.4-1.3,4C148,409.9,148,408.8,148,408.3z
			 M153.6,351c2.1,1.3,1.3,2.4-0.3,3.7C150.7,356.4,148.2,350.8,153.6,351z M138.3,343.3c0.3,1.3,0.3,2.9,0.3,4.3
			c0,0.3-0.3,3.2-0.3,3.2c-3.2-1.3-4.3-6.4-5.9-9.1c-2.9-5.1-5.6-8.3-6.2-14.5C145.6,335,139.9,331.2,138.3,343.3z M109.2,333.6
			c-0.3-0.3-0.5,0-0.3,0.3c2.9,3.7,5.1,8.6,6.7,12.8c4,10.4,11.5,19.3,16.9,28.9c1.3,2.4,5.1,10.4,5.9,12c-0.3,0.8-0.3,1.6-0.5,2.4
			c-1.1-1.3-2.1-2.1-3.2-3.2c-11.5-11.5-22.5-35.9-26.8-51.9c-0.5-1.9-0.8-3.5-1.3-5.1C107.6,331,108.6,332.3,109.2,333.6z
			 M134.1,365c-1.3-1.9-3.2-3.5-4.5-5.9c-3.7-5.9-7-12.3-9.6-19c-1.1-2.9-4.8-15.3-4.3-18.7l5.4,2.9c-0.3,8.3,11.5,35.1,16.6,42.8
			c0.8,1.6,1.9,2.9,2.4,4.3C137.5,369.8,135.7,367.4,134.1,365z M141.6,378.1c1.6-10.2,1.3-30.5,3.5-38c2.4,6.7-0.8,9.1,0,15.3
			c1.6,12.8-0.8,11.2-1.6,24.1c-0.5,12-3.5,17.7,0,31.6c1.1,4.3,2.7,7.8,4,12c-0.3,0-0.8,0-1.1,0.3l-4-12c-1.1-3.2-2.1-6.4-2.7-9.6
			C137.8,393.6,140.2,385.8,141.6,378.1z M101.1,366c2.4,4.3,3.5,9.4,5.1,13.9c3.2,9.4,13.4,28.9,20.1,36.4c0.5,0.5,1.9,4.5,0.5,3.7
			c-3.7-3.5-3.5-1.1-7.2-6.4c-7-10.4-15.5-25.7-17.9-38.5c-0.5-3.2-0.3-7-1.6-10.2c0-0.5,0-0.8,0-1.3
			C100.3,363.9,101.1,365.8,101.1,366z M222.1,355.3c-0.3,0.5-0.8,0.8-1.1,1.1l-3.5-6.4c-1.6-4.8,0.5-3.2-3.7-7.8
			c-0.5-0.5-0.5-0.5-0.3-0.8c3.2,1.6,7.2,10.2,8.8,13.6L222.1,355.3z M231.7,323.7c-1.6,6.2-2.1,13.4-4.3,19
			c-1.1,2.9-3.5,4.8-4.5,7.8c-0.3,0.3,0,0.3-0.5,1.1c0.3-1.3,2.7-5.6,3.5-7c5.9-10.7,2.1-20.1,8.3-27.6
			C233.9,317.9,232.3,322.4,231.7,323.7z M248.9,292.4c-2.4,21.4-14.5,12-30.5,12.8c-0.8,0-1.3,0-2.1,0.5c6.2,2.4,25.7,2.1,25.7,2.1
			c-5.6,6.7-5.1,4.8-11,9.1c-4.8,3.7-4.8,6.4-9.9,9.9c-2.7,1.6-1.1,0.3-2.7,1.9l0.3,0.3c2.4,0.3,2.1-0.5,4-0.8
			c0.8,2.4-4,1.6-4.5,1.6c-2.4,0.5,1.1,1.1-1.6,0.3c-1.3-5.1-0.8-5.1-3.2-10.7c-0.5-1.6-0.5-1.3-0.5-1.9c3.5,1.9,21.1,0,21.7-3.5
			l-3.5,0.8c-3.7,1.3-13.4,1.1-16.9,0c-5.1-1.9-2.1,1.3-5.9-3.7c-5.9-8-16.9-17.4-27.3-14.2l-7.5,2.4c1.6-2.9,9.1-6.7,12-8.8
			l-5.1,2.1c9.4-13.1,32.6-8,44.7-1.9c5.1,2.7,8,4.5,13.4,6.7c-2.9-1.1-5.6-1.9-7.8-4.5c1.6-1.3,5.4,0.8,6.2-1.6
			c-1.3-0.3-3.7-1.1-5.9-1.6c-2.7-0.5-7.8-0.5-9.6-2.7c2.7-0.8,14.5,1.9,19.3,0.8c-14.7-4-21.1-2.1-27.3-3.5
			c8.3-1.3,16.6-2.1,24.6,0c-11.5-3.2-12.3-2.7-24.1-1.6c-6.2,0.3-9.9-0.5-16.3,0.5c0,0,0,0-0.3,0c5.4-7.8,30.2-16.1,43.6-8.6
			C247.5,279.6,248.3,284.4,248.9,292.4z M231.2,261.1l1.3,1.1c8.6,7,12.6,6.2,15,18.5c-4.8-4.5-4-7.5-12-9.1c-1.1,0-4-0.5-4.5-0.8
			c4.8-0.3,8.3,1.9,12.6,3.7c-9.4-6.4-16.3-4.3-27-3.2c-4.8,0.5-11.5,3.2-15,6.4c4.3-1.6,10.2-5.4,14.5-5.4
			c-7.8,1.9-13.9,6.7-16.9,7.5c3.2-4.8,11-11.5,17.4-11.5c11.8,0,12.3-3.7,22.7,1.9c1.1,0.8,2.1,1.3,2.1,1.3
			c-0.5-0.8-0.5-1.1-1.1-1.6c1.9,1.6,2.7,2.7,4.3,4.5c-0.8-3.5-4-6.2-7.2-7.2v0.3c-8.3-3.7-11.5-0.8-20.1,0
			c-8.3,0.8-10.2,3.2-16.9,8c0.5-1.9,4.3-6.7,6.4-7c-0.5,0.8-2.9,2.9-3.7,3.5c5.9-3.5,6.4-4.3,13.4-5.1c2.1-0.3,3.5,0,6.4-0.5
			c5.6-1.3,9.1-2.9,14.5,0.3l0.3,0.3c-5.1-5.6-6.2-2.9-12.3-3.2v-0.3c2.4-2.7,3.7-0.5,6.4-0.5v-0.3c-0.8-1.3-2.4-2.1-4-2.1
			c-1.6-0.3-0.8-2.1-0.8-3.2c0-0.5,0-0.3,0-0.5c0.3,0,0.3,0,0.3-0.3C228,256.8,230.7,260.3,231.2,261.1z M222.4,225.8
			c0.5,0,1.1,0.3,1.6,0.3c0,0.3-0.3,0.5-0.3,0.8c-1.1,0.3-2.4,0.5-3.5,0.5C221,226.9,221.8,226.3,222.4,225.8z M99.5,242.4
			c0.3-0.8,0.5-1.3,0.8-2.1l7-1.1c3.2-0.5,10.4,2.4,9.1,0.5l2.4-0.5c-2.4,1.1-2.4,2.9-1.6,2.9c0,0,0.5,0.3,0.5,0
			c0.5-1.6,1.9-1.1,2.7-2.1c0.5,1.6,2.7-1.6,4.5,0.3c0,0.8,0.8,1.3,1.3,0.8c1.1-1.1,2.7,0,5.1-1.3c2.7-1.3,3.7-2.1,7-2.4l-0.8,3.5
			c4-6.2,11.2-4.8,17.7-5.1c1.3,0,2.9,0.5,4.5,0.5c0,0.3-0.3,0.8-0.3,1.1c-4.5,1.1-5.9,5.4-6.7,9.6c-2.4-0.8-5.1,0.5-7,1.9
			c1.3-3.2-0.8-5.9,2.9-9.4c2.9-2.9-0.3-4-2.1,2.4c-4.8,15.8-1.6,4.8,6.2,5.4c0,0.3,0,0.5,0,0.5c-7.5,0.5-7,4-9.6,4.3
			c2.4-1.6-2.7-3.5-2.4-6.4c1.3-0.5,1.6,1.1,2.4,2.7c0.3,0.3,0.5,0.3,0.8-0.3c0-2.9-1.9-8.3,1.6-10.2c1.1-0.5-0.5-2.1-2.4,1.1
			c-0.3,0.3-1.1,1.3-1.1,1.3c0-0.5,0.3-1.1,0.3-1.6c0.3-0.5-0.5-0.5-0.5-0.3c-2.9,9.4-4,1.9-4.5,4c-0.3,1.1,0.5,5.1,1.1,5.9
			c-1.9-0.8-2.9-0.5-4.8,0.3c-0.5-1.9-2.9-4-4-5.4c-1.9-2.1-2.9-0.3-1.9-0.3c0.8,0,2.9,4.5,3.5,5.4c-1.6-0.8-3.5-2.1-5.4-1.3
			c0,0,0,0,0.3,0c1.9,0.3,3.5,1.6,5.4,2.1c0,0.3,0.3,0.3,0.3,0.5c-1.6,0-2.7-2.4-6.2-1.9c0.8-0.5-1.9-3.7-2.4-5.4
			c-0.5-0.8,0-3.2-1.3-1.6c-1.6,1.9,0,4.3,1.6,5.1c0.5,0.5,1.3,1.9,1.9,1.9c-1.3,0.5-2.7,1.1-4.3,0.8c-2.1-0.3-4.3,0.3-6.7,0
			c0.5-0.5-0.3-4,1.6-3.7c0.3,0,0.5,0,0.8-0.3l2.1,1.9c-0.5-0.8-3.7-4.8-4.5-4.3c-1.9,1.3-0.8,4.3-0.8,6.2
			c-2.9-0.5-9.9-1.1-12.3,0.3C100.3,245.3,98.2,245.3,99.5,242.4z M99.3,249.3c1.1,4-0.3,12.6-0.5,16.9c-1.6-5.6,0.8-7-1.9-10.4
			c-0.3,0-0.3,0-0.3,0.3c1.6,5.6,0.3,5.6,0.5,10.7c0.3,3.5,0,8-1.1,11c-0.3,0-0.8,0-1.1,0c1.3-3.7-1.9-9.9-1.9-9.4
			c0.3,2.4,0.8,4,0.5,6.4c-0.5-3.2-1.1-6.2-1.6-9.4c0-1.1,0.3-4.3-0.5-5.1c0.5-0.8,4-1.1,4.5-4.8C96.3,253.1,98.5,253.1,99.3,249.3z
			 M88.8,264.1c-0.3-0.3-0.3-0.8-0.5-1.1c0.5,0,1.1-0.3,1.6-0.8c-0.3,1.3,0,2.7,0.3,4c-0.3-0.3-0.3,0.5-0.3-0.3
			c-0.3-0.3-0.8-1.1-1.1-1.3C88.8,264.6,88.8,264.3,88.8,264.1z M91.2,270c0.3,1.3,0.5,2.4,0.5,3.5l-1.6-5.4
			C90.4,268.6,91,269.4,91.2,270z M48.7,248.8c4-1.9,9.4,1.1,13.6,1.6l-1.3,1.1c-1.3-0.3-2.7,0.8-3.5,1.6c-2.1-0.5-5.9,0-8,0.8
			C49,252.3,47.9,250.4,48.7,248.8z M46.6,249.3c0.5-0.5,0.5-0.3,1.1-0.5c0.3,0.8,0.8,5.1,0.5,5.4C46.8,253.4,46.6,250.7,46.6,249.3
			z M45.5,249.6c0,2.1,0.5,2.4,0.8,4c-0.3,0-2.7-1.3-3.2-1.9c0-1.1-0.5-1.3-0.5-2.1C43.3,248.8,44.7,249.3,45.5,249.6z M53.5,293.2
			c-0.8,0-1.3-0.3-2.1-0.8c0-0.5-2.1-1.6-3.2-3.2c-0.5-0.8-0.5-1.9-0.8-2.9c1.3-1.1,2.7-2.4,4-3.5c0.8,3.2-2.1,4.3,1.3,7.8
			c0.3,0.5,1.9,2.4,2.1,2.4C54.6,293,54,293.2,53.5,293.2z M55.1,290.8c-1.3-1.6-3.5-2.1-2.1-4.8c0.8-1.9,2.1-2.7,1.1-5.1
			c1.1-0.5,1.9-1.1,2.7-1.6c0,0.3,0,1.1,0.3,1.6C54.6,283.6,51.4,288.4,55.1,290.8L55.1,290.8z M91.2,317.3c-0.5-2.9-0.3-8-0.8-9.6
			l1.1,0.3c1.1,1.6,1.1,4.8,1.3,6.7c0.3,5.9,1.9,11,4.3,16.3c-0.3,0,0.3,0.3,0.3,0.3c1.9,2.9,9.1,24.9,10.4,30.5
			c2.4,9.4,6.7,17.9,11,26.2c4.5,9.6,9.6,19.5,19.3,24.9c0,0,0.3-0.3,0-0.3c-9.9-7.2-13.1-15.8-18.5-26.2c-4.3-8-8.3-15.8-11-24.6
			c2.7,6.7,12.6,26.2,17.9,31.8c0.3,0,0.3-0.3,0.3-0.3c-3.2-4-11.5-20.3-13.6-26c-2.4-7-4.5-14.2-6.4-21.4c-0.3-0.8,0.8,0.8,0.8,1.1
			c0.8,1.6,1.3,3.5,2.1,5.1c5.4,14.2,13.6,34.3,24.9,45.5l3.5,3.2l1.1,5.6c-3.5-3.2-7.2-4.8-10.4-8.8l-4-4.3
			c6.7,12,14.2,15.3,16.3,19c0.5,0.8,2.9,8.8,3.5,10.2c-16.3-7.8-29.2-34-34.8-50.3c-1.1-2.7-2.1-5.6-3.5-8.3
			c-0.8-2.1-1.3-4.3-2.1-6.4c0.5-0.3-1.6-5.6-1.9-6.2c-1.6-4-2.7-11.5-6.2-20.3C93.9,326.7,92.3,322.1,91.2,317.3z M96.3,342.5
			c0.3-0.5,0.3-1.1,0.5-1.9c0.5,1.3,0.8,2.4,1.1,3.5c-1.1,0.3-1.9,1.9-2.4,3.2C95.8,345.7,96.1,344.1,96.3,342.5z M97.4,368.2
			c-0.8-5.4-1.9-10.4-1.6-15.5c0.3-4.5,1.9-5.6,2.7-7.5c0,0.3,0,0.5,0.3,0.8c-1.1,2.7-2.7,5.4-2.9,8.3s1.1,6.2,1.6,9.1
			c1.9,8.6,3.2,17.1,6.2,25.4c3.5,8.8,8.8,16.3,13.9,24.1c-6.2-6.2-15-18.7-16.6-28.4C99.8,379.1,98.5,373.5,97.4,368.2z
			 M101.9,401.3c-1.1-4.5-2.4-10.7-1.9-15.3c2.1,3.2,5.6,16.6,8.3,20.3c1.3,2.1,2.9,3.7,4.5,5.4c-2.4-1.9-9.1-9.9-9.4-9.9h-0.3
			c1.3,3.2,4.5,5.6,5.4,7.8C104.6,407.8,103.6,405.1,101.9,401.3z M331.3,673.5C328.6,674.6,331.6,671.1,331.3,673.5z M132.7,244.5
			c4.8,4.3,2.4-4.8,0.8-4.5c-0.3-2.4-1.1,1.9-2.7,1.3C129.5,241,132.7,244.3,132.7,244.5z M221.3,269.7c8.6-0.5,8.6-2.4,16.9,1.3
			c1.6,0.8,2.9,1.6,4.3,2.4C235.2,265.7,230.1,268.3,221.3,269.7z M49.2,251l1.9-0.5c1.3-0.5,7.2,0.5,5.4-0.8c-1.3-1.1-5.9-1.6-7,0
			C49,250.1,49.2,250.4,49.2,251z M211.1,405.6c2.9-8.8-0.3-19.5-4-28.1c-2.1-0.3,4.3,18.7,3.5,23.8c-0.3,1.3-0.5,2.9-0.3,4.5
			C210.9,405.9,210.9,405.9,211.1,405.6z M154.1,278.2l-2.7-5.4C147.7,270.5,152,282,154.1,278.2z M166.7,365.5c0,0.5,0,1.1-0.3,1.3
			c0.3-0.5,0.3-1.3,0.5-1.9C167,365,166.7,365.2,166.7,365.5z"/>
		<path fill="#FFFFFF" d="M163.5,240c-0.5,1.1-2.7,1.9-2.9,2.4c-2.1,0.5-0.8,1.9-0.3,1.1l9.1-1.3c1.9,0.5-10.4,8-11.5,12.8
			c-1.3-4.3-1.9-8.6-0.3-12.6c1.9-2.4,4.8-1.3,5.1-6.4C163.5,237.3,164.3,238.4,163.5,240z M101.4,305.5c1.6-1.3,6.4,0.5,8,1.6
			c2.7,1.3,5.1,3.5,7.8,5.1c5.4,3.2,14.2,6.2,22.5,8.6l0.3-0.3c-9.9-6.4-19.3-13.1-28.9-17.9c7,1.1-4-2.9-6.7-2.7
			c0.5-1.6,0.8-2.9,1.1-3.7l0,0l11.5,3.2c-3.5-2.4-7.2-4.3-11.2-4.5c0-1.6-0.5-3.2-1.1-4.8c1.9,0.8,4.3,1.1,6.2,1.6l19.5,6.4
			c1.3,0.3,2.9,0.3,4.3,0.8c14.2,2.7,18.7,2.4,32.4,1.9c8.8-0.3,8.8,1.1,16.3,3.5l0.3-0.3c-1.9-1.9-2.1-1.3-3.2-2.7l1.6-0.3
			c8.8-1.1,23.5,15.5,23.8,20.9c0,2.4,0.8,9.1-5.4,7l-0.3-0.3c0.3-0.5,4.3-2.4,2.4-2.9c-2.1-0.5-10.7,6.2-12.3,7.5
			c-2.4,2.1-4.5,4.5-8,4.3c1.3-1.6,1.6-1.1,2.1-2.7c-2.9-4-8.8,2.1-16.3-2.7c-4-2.7-8-6.7-12.3-9.6l0.3,0.3
			c-10.2-8.8-38-19.3-35.3-16.9c4,4,14.7,5.4,28.9,20.6c2.9,2.9,5.9,4,7.8,5.9c-7.5-2.7-13.6-5.1-21.4-7.8
			c-21.4-7-22.2-14.2-33.5-18.2C102.2,306.3,100.6,306.1,101.4,305.5z M166.4,341.1c-10.7-2.9-8.6,0.3-20.3-6.4
			c-4.5-2.7-8.8-4.8-13.4-7c-5.4-1.6-9.6-5.4-14.7-7.8c-0.3,0-1.6-2.1,4.5,1.3c4.5,2.7,9.1,4.8,14.2,6.7
			c12.3,4.8,21.4,11.2,33.5,12.6c16.9,2.1,18.7-3.2,23.8-4.5c1.3-0.5,16.9-4.5,17.4-4.3c0,1.6-0.5,1.1-2.9,1.6
			c-10.4,2.4-7.5,0.5-16.3,4.8C183.8,342.2,175.3,343,166.4,341.1z M226.4,252.6c-1.1-1.3-3.2-2.1-2.9-2.7c1.1-0.3,2.4-0.5,3.5-0.8
			C227.2,250.4,227.7,251.8,226.4,252.6z M231.2,234.1c0.5,1.6,1.6,2.7,0.8,4.5c-1.6,2.7-4.3-1.3-2.9,6.4c0.3,1.9-1.3,2.1-2.9,2.7
			c0.3-0.3,4.3-2.9,1.6-1.6c-10.4,4.8-3.5,4.5-1.6,6.4c-1.6,2.7-0.8,2.4-1.1,5.4c0,1.6-1.3,4.5-2.9,5.6c-6.4,4.8-17.9-4.8-24.9-5.4
			c-1.3,0-1.9,0.5-2.9,1.1l0,0c1.3-0.3,2.7,0,4,0.3c-3.5,1.9-6.4,9.1-7.2,9.6c-4.5,1.3-9.1,2.9-13.9,2.7c-6.4,0-13.1-6.2-16.6-11.5
			c1.3,0.5,3.7-1.1,4.8-1.6c5.9-2.4,8-8.6,11.5-13.1c1.3-1.6,6.4-5.6,7.5-1.9c2.1,5.6-6.4,18.5-4.3,27c0,0.5,0.8,0.5,0.8,0
			c0.8-2.4,0.8-4.8,1.3-7.2c0.5-1.9,3.7-8.8,5.6-9.9c1.9-1.3,5.4,0.3,5.1-1.1c0-1.6-1.3-2.9-1.6-4.5c-0.5-1.9-0.3-3.7-0.5-5.6
			c1.6-0.8,1.1-2.9,0.8-4.5l-1.3-0.3c-1.3-0.5,0,1.9,1.1,1.1c0,1.1,0,2.4-1.1,2.7c-2.4,0.3-3.5-2.1-5.1-3.2
			c-3.5-2.1-4.3-6.4-5.4-10.2c0.5-0.5,1.1-0.8,1.6-1.1c-0.3,1.9,0.5,3.2,1.3,5.1c0.8,1.3,0.5,3.2,2.1,4c0.8,0.8,1.9,0,3.7,1.1
			c0.5,0.3-1.1-1.3-1.3-1.3c-0.8-0.8-2.4,0.5-2.9-2.4c-0.3-2.1-3.7-6.2-1.1-7.8c-2.1,5.4,0.5,1.9,2.1-0.8c0.8,0,1.3,0,1.9,0.3
			c-1.1,2.1,0,2.7,1.9,1.6c0.3,0.5,0.3,1.1,0,1.6c0-0.3,0-0.5-0.3-0.3c-2.1,0.8-3.7,0.3-4.3,3.5c-0.5,4.8,2.9,2.1,4.3,3.2
			c0.5,0.5,0.8,1.6,1.9,1.6c2.1,0.3,1.6-1.3,0.5-2.7c-1.3-1.6-0.3-3.7-0.3-4c0,0,0.8,0.5,0.5-0.3c-0.3-1.9-2.7,1.3-3.2,1.9
			c-1.1-0.8,0.3-1.3,1.3-2.4c1.9-2.1-0.3-4.3-2.7-5.1c0.8-0.3,3.5,0.5,3.7,1.1l0.3-0.5c0.8,0.5,1.9,0.8,2.7,1.6
			c4.3,2.7,2.7,4.8,9.1,4c1.9-0.3,1.3-1.9,1.1-3.2c-0.8-2.9,1.1-4,3.2-4.5c1.6,0.8,3.2,1.3,4.5,2.4c2.7,2.7,3.2,2.1,6.7,1.3
			c0.5-0.3,1.6,0,2.1-0.5v0.3c-5.1,3.5,0,3.2,2.9,2.4c-1.3,4.8,0.8,3.2,1.6,0c1.6,2.7,3.2,2.4,3.5-0.8L231.2,234.1z M187.6,225.8
			l0.8,0.3C187.6,226.6,187.6,226.6,187.6,225.8z M190,233.8c0.3,0.3,0.8,0.8,1.1,1.3c0.5,0.5-0.5-0.3-0.8-0.5
			c-1.1-1.1-1.3-1.3-2.9-1.3c0-1.1,1.6-0.8,2.4-1.6C189.7,232.5,189.7,233.3,190,233.8z M97.9,237.8c1.1,1.6,0.3,2.7-0.5,4
			c-0.8,1.6,0,3.2,0,4.5c-0.5-1.1-0.8-2.4-0.8-3.5c0-1.3,1.6-2.7,1.1-3.7c-1.3-2.1-3.2,0-4.3,1.9c-0.3-1.3-0.5-2.9-1.1-4.3
			C93.9,236.2,95.5,234.6,97.9,237.8z M65,249.9c1.1-1.6,1.9-4.8,2.1-5.9c0.8-1.9,2.1-3.2,2.7-5.4c0.8-2.9,1.1-2.4,3.5-3.7
			c0.8-0.5,1.6-0.3,0.5-0.5c2.1-3.5,5.6-2.4,8.8-1.3c6.2,1.9,8.3,1.3,9.4,7.5c0.8,3.7,3.5,4.8,2.9,9.4c-1.3-2.7-2.7-5.1-5.1-7
			c0.3-2.9-7.5-5.6-9.4-7c-0.5-0.5-2.1-2.1-2.7-0.8c-1.9,2.9,10.4,6.4,13.9,11.8c1.3,1.9,3.5,4.8,2.4,7.5c-0.3,1.1-1.1,2.4-2.1,2.9
			l-2.4-5.9c-1.9-3.5-6.4-2.4-12-8.3c-2.7-2.9-6.4-1.1,0,2.1c1.1,0.5,1.9,1.3,2.9,1.9c1.1,0.8,2.4,1.3,3.5,2.1
			c2.4,1.9,9.9,10.4,4,12c0-2.7-2.4-4.5-4.3-6.7c-2.4-2.1-9.9-2.1-11.5-5.1c-1.1-1.9-2.4,2.1,1.1,3.2c6.4,1.9,6.4,1.9,11.5,6.2
			c-3.5-1.9-5.9,0.3-7.8,0.3c-1.1-0.3-2.7-0.3-3.7-0.5c-4.5-1.1-7.8-4.8-7.8-1.6c-0.5-1.3-0.3-2.9-0.5-4.3c0,0-4,6.2-0.3,7.8
			c-2.1,0-4.5-0.3-5.9,1.3C58.9,257.1,64.5,253.6,65,249.9z M79.2,236.5L79.2,236.5C78.9,236.2,78.4,235.4,79.2,236.5z M26.5,252
			c5.1-2.7,12.8-1.9,17.1,2.4c-6.2,0-7.2-3.5-15.8-1.6c-2.9,0.5-1.3,0.3-2.7,0.5C25.7,252.8,25.9,252.6,26.5,252z M39.1,290
			c-7.2,3.7-16.6,3.7-24.4,1.9c-4.5-1.1-4.8-3.7-7.5-7c-3.2-3.5-7.2-1.9-0.8-9.6c10.7-11.2,13.6-24.4,32.1-20.1
			c10.7,2.4,7.5,0.3,16.9-0.5c-6.2,2.9-10.7,13.9-8,18.7l1.6,2.4l-2.1-1.1c-7.2-4.3-20.3-0.8-27,2.7c-2.9,1.6-4,2.1-7.2,3.2
			c-1.9,0.3-7.8-0.5-7,1.3c0.5,1.9,2.7,2.7,3.5,4.3c4,7,12.3,6.2,19,5.1c12.8-1.6,25.2-13.1,27-14.2c0.8,0,1.6-0.5,2.1-0.8
			c-0.5,1.3-3.5,2.9-4.8,3.7C48.4,282.8,44.9,287.1,39.1,290z M85.1,303.4c-2.9-0.5-10.7-3.5-11.2-7c3.2,3.2,8.6,6.4,13.1,6.7
			C86.4,303.1,85.6,303.4,85.1,303.4z M87.8,297c0.3-3.2-0.5-5.9,0.8-8.8c1.6-4,0.3-3.7,0-3.2c-0.8,3.7-1.3,4-2.4,7.2
			c0-0.3,0-0.3,0-0.3c0.5-1.3,1.3-2.9,0.8-4.5c0-0.3-1.6,3.5-2.1,4.3c-0.8,0.8-2.1,1.6-2.4,2.9c0,0.8,1.6,0.3,2.4-0.5
			c0.3,1.3,3.2,7.8-1.9,5.4c-0.5-0.3-1.1-0.8-1.3-1.3c0.5,0,3.2,1.3,3.2,0.3c0-0.8-2.1-1.6-2.7-1.9c-1.3-0.8-1.1-2.7-4-2.1
			c-0.5,0.3-1.1,0-1.6,0.5c1.6-1.9,2.9-2.1,1.3-4.8c-0.8-1.3-2.4-7.5-4-8c-1.6-1.1-6.7,0.5-8.3,0.8c-4,0.8-7.8,1.1-10.4,4.5
			c-0.3-2.4,1.9-4,3.2-5.9c2.1-2.7,5.9-1.6,8.6-3.7c0.8-0.5,1.1-1.3,1.9-1.9c0-0.3,3.5-2.7,2.4-2.7c-2.4,0.3-3.7,2.9-4.3,2.9
			c-2.4,0.3-6.7,0.3-8.8,2.1c0.3-1.3,1.1-2.7,1.9-3.5c0.8,0.3,2.9-1.1,3.7-1.3c1.3-0.8,3.2-1.1,4.8-1.9c5.6-2.4,7.5-5.1,6.7-4.8
			c-2.4,0.5-4.3,2.7-8.8,3.5c-2.7,0.5-6.4,0.3-6.7,3.5c-0.3,0-0.3,0-0.3,0.3c-2.1-2.9,2.7-6.2,4.5-7.2c3.2-1.6,7.5-0.8,12.3-3.7
			c0.3-0.3-0.5-1.1-3.2,0c-5.6,2.1-12.3-1.6-12.8,4.3c-2.7-6.7,2.9-4.8,7.5-5.4c4.3-0.5,8.6-1.1,12.6-2.1c4.8-0.5,5.6,4.5,7.5,7.8
			c0.8,2.1,1.9,7,3.7,10.7c1.3,2.1,0.5,4.5-0.3,7c-0.5,2.1-2.7,9.9-3.5,12C87.8,297,87.8,297,87.8,297z M228.5,233.6
			c-1.6,0-2.4,1.3-2.9,2.4c-1.1,1.3-1.9,2.7-0.8,4.3c0.3,0.8,1.6,0.3,1.1-0.5c-0.3-1.1-0.5-1.6,0-2.4c1.3,2.1,5.1-1.3,4.3-1.9
			C230.1,234.4,229.3,233.6,228.5,233.6z M229.6,238.9c-4.3-1.1-3.5,2.9-2.1,1.1c0.8-0.5,1.3,0,1.9-0.3
			C229.9,239.7,230.1,239.2,229.6,238.9z M12,278c6.4-3.2,12.6-5.6,18.2-9.9c5.4-4,9.4-4.8,13.9-7.5V260c-2.4-0.8-21.9,4.3-24.6,5.9
			c-3.7,1.9-10.2,7.5-9.4,12C11.5,278.5,10.7,278.2,12,278z M131.4,303.9c6.7,3.5,17.9,6.7,25.7,9.4c5.4,1.9,9.6,3.2,15.3,3.7
			c3.5-4-10.2-8.8-12.8-9.6l-22.7-3.7c-5.1-0.5-7.2-4-12.3-5.9v0.3C126.8,299.4,129.2,301.8,131.4,303.9z M181.2,317.6
			c1.3,1.3,2.1,2.1,4,2.7l0.3-0.5c-1.3-2.7-7.2-10.2-9.9-10.4C177.4,312,179.3,314.6,181.2,317.6z M178.2,324.3
			c2.9,2.1,8,4.5,10.2-0.3C185.4,324.8,181.4,324.3,178.2,324.3z M183.8,330.2h1.9c-0.3,0.5-1.9,0-1.1,2.1c7.5-0.5,5.6-2.7,8.3-7
			c1.6-2.1,5.9-6.4,6.7-7.8c-2.4,0.3-10.4,9.1-15.3,11.8c-0.5,0.3-0.5,0.3-0.8,0.5C183.6,329.9,183.6,329.9,183.8,330.2z M68.5,248
			c0.5-0.8,2.7-1.9,1.6-2.7c-1.3-1.1-4.5,1.6-3.7,3.2C66.9,249.3,68,248.5,68.5,248z M71.2,240.8l2.1-0.5c0-1.6-2.9-1.1-3.2,0
			C69.8,241,70.6,241,71.2,240.8z M203.6,237.6c-1.1-0.5-5.9-2.1-6.4,0.3c-0.3,0.5,2.7,1.9,4,3.5c1.6,2.1,5.9,9.6,8.6,6.4
			C211.7,245.1,205.8,238.6,203.6,237.6z"/>
		<path fill="#FFFFFF" d="M396.1,738.8c1.1,1.9,0.8,3.7,0.5,5.6c-0.3-2.7-1.9,2.7-1.3-2.7c0.3-2.1-1.3-3.2-1.1-2.1l0,0
			c2.9,4-5.4-0.3-12-1.1c-0.3,0-10.4-0.3-9.6-1.6c2.7-0.3,5.6-0.5,8.3,0l0,0c-1.6-0.3-3.5-0.5-5.1-0.8c2.9,0,5.9,0.3,8.8,0.8
			l-4.3-1.1c1.3-0.3,7.8,1.3,7.8,1.3c-1.3-0.8-2.9-1.1-4.3-1.6c2.1,0,4.8,1.6,7,2.1l-3.5-1.9c0.5,0,4.8,2.1,4.5,1.9
			c-0.3-0.8-1.1-1.3-2.1-1.9c-0.3-2.7-6.2-2.1-7-3.2c1.1-4.8,7.5,4,8,2.7c0.5-1.1-3.2-5.1-4.3-6.2c0.8,0.3,1.3,0.8,1.9,1.3
			c0.5,0.3,1.1,0.3,1.6,0.8l0,0c-0.5-0.5-0.5-1.9-2.4-3.2l0.8-0.3c0.3,1.1,2.4,1.6,2.9,3.2c0.3,0.5,1.1,0,0.5-1.3
			c0.3-0.5,0-1.1-0.3-1.6c0.3,0,0.3-0.3,0.5-0.3c0.5,0.8,0.3,4,0.5,4.8C392.8,735.1,394.7,736.9,396.1,738.8z M396.6,748.2
			c-0.5-0.5-0.3-1.3,0-2.1V748.2z M101.1,286.8c0-0.5-0.5-0.3-0.5,0c0.3,13.6-4.5,3.2-7,8c-1.1,1.6-2.4,0-3.7,0.5
			c0.5-1.9,2.4,0.5,2.9-0.3c1.3-2.4,0.8-5.4,1.1-8l1.1-6.7c1.3,0.5,5.1,4.3,5.1,4.3c-0.5-1.3-1.3-2.7-2.4-3.7
			c0.8,0.5,2.9,2.7,3.2,3.2c0,0.3,1.6,6.7,1.6,7.5c-0.3,1.3-0.8,2.9-1.1,4.5c-3.2,9.6,2.1-1.1,2.1-3.5c0.5,2.7-0.5,5.6-1.9,8
			c-0.5-0.3-1.1-0.5-1.6-0.8C100.1,295.4,102.2,291.4,101.1,286.8z M100.1,302.6c-0.3,0-0.5,0.3-0.8,0.3c-1.1-1.1-5.4-2.7-7.5-3.5
			c-0.8-0.5-1.9-1.6-2.7-1.6c0-0.3,0-0.3,0-0.5c1.6,1.3,4.8,1.9,6.7,2.9C96.6,300.7,99,302.3,100.1,302.6z M92,294
			c-0.5-0.3-1.1-0.5-1.9-0.3c0.8-4.5,2.4-8.3,3.2-12.8h0.3l-0.8,5.6C92.6,289,93.1,291.9,92,294z M95,279.3v-0.3
			c0.3,0.3,0.8,0.5,1.1,0.5L95,279.3z M159.2,238.6c-0.5,2.4-4.5,2.1-2.9,13.4c1.3,9.1,11.2,19.8,20.3,20.6
			c3.7,0.3,9.6-0.8,13.4-2.1c-3.7,4.3-29.2,7-34.8-19.3C154.4,246.9,155.5,241.3,159.2,238.6L159.2,238.6z M159.5,274
			c2.7,4.3,13.1,6.4,17.4,7.5h-0.3c0,0,0,0,0.3-0.3c-3.2,2.9-7.8,3.7-11.8,3.2c1.3-1.1,5.6-1.3,7.5-1.9c-4.5-2.4-5.6,0-9.9,0.3l0,0
			c-2.4-1.9-1.3-0.5-2.4-0.8c0.3-0.8,1.1-2.7-0.5-2.9C159.8,277.4,159.8,275.8,159.5,274L159.5,274z M158.7,270.2V270l-1.3-2.9
			c3.2,4,10.4,10.7,15.8,11.5c2.1,0.3,4.3,0.3,6.4,0.3c-6.4,2.4-12.8-0.8-18.5-4.5C159.8,273.2,159.8,271.6,158.7,270.2z
			 M173.1,284.7c-2.4,2.1-1.3,1.9-4,1.6C170.5,285.5,171.5,285.2,173.1,284.7z M163,286.3c3.7,1.6,2.9,0.8,6.4,1.3
			c-3.2,1.3-7-1.1-9.4-2.9c0.3-0.3,0-0.3,0-0.3S162.7,286,163,286.3z M162.2,287.1c0.3,0,5.4,1.9,5.6,2.1c-1.1,0.8-6.2,5.4-6.4,5.6
			c2.1-7.5,0-5.1-1.1-8.6C160.6,286,161.9,286.8,162.2,287.1z M62.6,252c-2.7,4.5-5.6,7.8-4.5,13.4c-2.1-3.7-4-1.6-2.9,0.5
			c0.5,1.1,1.3,2.4,1.9,3.7C50.3,261.7,57.8,257.4,62.6,252L62.6,252z M53.8,267.8l3.7,4.5c0,0.8,0,1.6,0.5,2.4
			c-2.4,0.8-4.5,2.1-7.2,0.8c-3.5-1.6-2.7-5.9-2.1-9.1c1.1-5.4,2.9-8.3,8-10.2C53.5,260,50.8,263,53.8,267.8z M88.3,304.2
			c0.3-0.5,0.8-1.1,1.1-1.6c1.1-0.3-0.5,1.1,0.8,1.6c1.6,0.8,4,1.3,5.9,0.8C93.4,307.4,91,305,88.3,304.2z M36.7,734
			c1.9-2.7,3.7-3.7,5.1-7.5h-0.3c2.4-4.8,2.1-5.6,7.2-8.3v0.3l3.5-1.1c0-0.3,0-0.3,0-0.5c0.8,0,1.6,0,2.4,0l0.3,0.5
			c-1.3-0.3-2.7,0.8-3.7,1.1c-4.3,1.6-6.4,1.9-8.3,7c-1.3,4.3-2.7,5.6-5.6,8.6c3.7,0.8,9.1-6.4,11.2-8.6c1.6-1.3,6.2-5.1,6.4-6.7
			c0.3,1.3-0.8,2.1-1.6,3.2c-3.7,3.5-6.4,6.4-10.2,10.2c-2.4,2.7-7.2,3.7-6.4,2.4C36.7,734.3,36.4,734.3,36.7,734z M44.7,726.8
			c5.9-4.5,2.7-4,8-6.7l-11.5,11.2c-0.5,0.3-0.8,0.5-1.3,0.8C43.3,727.8,40.9,729.7,44.7,726.8z M44.7,724.4
			c0.8-1.6,1.9-2.9,3.5-3.7C47.4,722.2,46,723.3,44.7,724.4z M48.2,729.2c-0.3,0-0.3,0-0.5,0.3c0.3-0.3,0.3-0.5,0.5-0.8V729.2z
			 M50.3,730l-4,3.2c-0.5,0-0.8,0-1.3-0.3C47.1,732.4,46.6,730,50.3,730z M50.3,728.9c1.6-0.3,3.5-0.3,4.8,0.8
			C53.5,729.2,51.9,728.9,50.3,728.9z M49.2,728.4c0.8-1.3,5.1-1.3,6.4-1.1c0,0.5,0.3,1.1,0.5,1.6C54.3,727.8,51.1,727.8,49.2,728.4
			z M54.3,725.7c-0.5-0.3-1.1-0.5-1.6-0.5c0-1.1,1.6-0.5,2.1-0.8c0,0.5,0.3,1.1,0.3,1.6C54.8,726,54.6,725.7,54.3,725.7z
			 M38.3,742.8c-1.6-0.5-4.3,0.5-5.9-0.5c1.9-0.8,10.7-0.5,11.5,0C42.5,743.1,44.1,744.4,38.3,742.8z M41.5,745.2c0,0-0.3,0-0.3,0.3
			l-4.8-1.1C38.3,743.9,39.9,744.7,41.5,745.2z M40.9,739.9c-1.6-0.3-2.9,0.8-5.9,0c1.3-1.3,3.2-0.3,4.8-0.3c2.1,0.3,4,0,6.2,0.5
			C45.2,741.5,42,740.1,40.9,739.9z M39.3,738.8c2.1-1.6,2.7-1.6,4.8,0C42.5,738.8,40.9,739.1,39.3,738.8z M40.4,735.9
			c2.4-1.1,1.6-1.3,5.4,0C43.9,735.6,42,735.9,40.4,735.9z M35,737.7l1.6-1.6c0.3,0,0.5,0,1.1,0c-0.5,0.5-2.1,1.6-2.1,2.4
			c-0.3,0-2.1,0.8-1.9,1.6c0,0.3-0.3,0.8,0,1.1c-0.5,0-1.1,0.3-1.3,0.3C33.2,740.1,33.7,738.8,35,737.7z M20.6,754.6
			c-0.8,1.6-1.3,1.9-2.4,1.1C17.7,754.6,19.3,754.3,20.6,754.6z M15,754.3c0.3-1.6,0.3-2.7,1.6-4c0.3,0.5,0.8,1.1,0.8,1.6
			c-0.3,0.5-0.5,1.1-0.3,1.9c0.3,1.3-1.1,1.6,0.8,3.5c-1.3-0.5-2.1-1.6-2.9-2.7V754.3z M13.9,756.5c0.3-0.3,0.3-0.5,0.5-0.8
			c1.3,2.1,4.8,3.2,7,3.5c0,0.3,0,0.5,0,0.3c0,0,0,0.3,0.3,0.5C17.4,759.4,13.9,758.3,13.9,756.5z M22.5,757.5
			c-0.8,0-1.6-0.8-2.4-1.1c0.5-0.3,0.8-0.5,1.3-1.1l1.9,0.5C23,756.5,22.7,757,22.5,757.5z M23.8,760.2c4.3-1.1,4.5-0.5,9.1,0.3
			C30.8,760.5,27.3,760.5,23.8,760.2z M33.7,749.8c-0.3,0.3,0,0.5,0.3,0.5c1.3,0.8,1.1,2.7-4.3,0.5c0.3-1.9-2.4-1.9-2.4-1.3
			c-2.7-0.8-4.5,0-6.7,0.8c-1.6,0.8-1.3-0.8-2.1-1.3c3.5-2.1,11.5-5.1,12.6-5.9c0.3,1.1,2.1,1.6,3.2,2.4c-1.1,0-5.4-0.3-5.1,1.6
			c-0.3,0-0.3,0-0.3,0.3c0.3-0.5-0.5-0.8-0.8-0.8c-0.3-0.3-0.5-0.5-1.1-0.5c-1.9,0.5-1.3-0.8-5.6,1.3c-0.5,0.3-0.3,1.3,1.3,0.5
			c0.5,0.3,1.1,0.3,1.6,0.3c1.6,0,1.3,0.8,2.9-0.5c1.9,1.1,1.1,2.4,2.7,0c0.8,0,1.3,0.3,1.6,0.8c0.5,0.5,1.9-0.3,0.3-1.3
			c1.6-0.3,5.4,0.5,6.2,0l1.3,1.3C36.9,747.9,34.5,748.2,33.7,749.8z M40.9,748.7c0-0.5-0.3-1.1-0.3-1.6c0,0.8,0.5,1.1,1.1,1.6
			C41.5,748.7,41.2,748.7,40.9,748.7z M45.2,759.4c-1.1,0.3-1.9,0.3-2.9,0.5c1.6-0.5,2.7-1.1,4.5-1.1
			C46.3,759.1,45.7,759.1,45.2,759.4z M47.6,737.7c-1.6,2.1-1.9,1.1-2.9-0.8c1.1,0,2.1,0.3,3.2,0.8
			C47.6,737.7,47.6,737.7,47.6,737.7z M49.2,736.1c-2.1-0.3-4.5-1.3-6.7-1.9l1.1-0.8C43.9,734,48.4,735.6,49.2,736.1L49.2,736.1z
			 M50.3,734.5c-0.5,0-0.8-0.3-1.3-0.5c1.1-0.5,3.2-2.9,2.9-4c0.5,0.3,1.1,0.3,1.6,0.5C53,731.8,52.2,734.8,50.3,734.5z M51.6,735.6
			c3.5-1.6,1.1-5.4,4.8-4.3c0,0.3,0,0.3,0,0.3l-4.8,4.3C51.6,735.6,51.6,735.6,51.6,735.6z M56.5,734.8c-0.5,0.8-2.9,1.9-2.7,2.7
			C54,738,53.2,738,53,738c-1.9,0.3,4-4.8,4-4.8c0,0.3,0.3,0.3,0.5,0.3C57.3,733.5,56.5,734.8,56.5,734.8z M66.9,755.4
			c-2.4-2.4-6.4-14.2-7-17.7c-0.8-4-2.4-7.8-3.5-11.5c-0.5-1.1-0.5-5.1-0.8-5.1c0-0.3,0-0.5,0.3-0.8c0.3,0.5,0.5,0.5,0.8,0.8
			c-0.5,0.5,4,14.7,4.5,16.3c2.4,8.6,1.6,8.8,5.9,17.9C66.9,755.4,66.9,755.4,66.9,755.4z M57.8,719.8l0.3,0.3
			c-1.3,1.1-2.7-2.9-2.1-4c0-0.3,0.5-0.3,0.8-0.5c0,0.3,0.3,0.5,0.3,0.5C56.7,716.9,57.3,719,57.8,719.8z M71.4,720.1
			c-0.8,0.3-2.7,0.3-3.2-0.3c4-1.9,4.3,0,6.2-0.3c-0.5,1.3-3.2,2.1-4.5,2.7c0,0-0.3-0.3-0.5-0.3C73.3,720.3,71.7,719.8,71.4,720.1z
			 M69.8,717.4c-1.1,1.1-2.1,1.3-2.1,1.6c-0.3,0.3-1.1,0.8-0.5,1.1v0.3c-0.8-0.5-1.9-1.1-2.7-1.6l3.5-1.9
			C68.2,716.6,70.9,715.8,69.8,717.4z M63.1,717.1c0,0-0.3,0.3-0.3,0.5c-0.8-0.5-1.6-1.1-2.7-1.6l0,0c0.5,0.3,3.5-0.5,5.1-0.5
			C64.5,716.1,63.9,716.6,63.1,717.1z M63.9,719.3c1.1,0.8,2.1,1.9,3.2,2.7c1.9,1.1,4.3,2.1,5.6,4.3c1.1,1.3,0.3,3.2-1.3,2.4
			c-4.5-1.6-8.8-9.1-12.3-9.6v-0.3c1.1,0.5,2.1,1.1,3.2,1.9c-0.3,0.3,1.3,1.1,1.6,1.1c1.1,1.1,7.5,7.5,8.8,5.9
			c1.6-1.9-7.2-5.9-8-6.4c-0.5-0.3-5.4-4-6.4-3.5c0-0.3,0-0.3,0-0.5l1.1-0.8C59.4,716.6,63.1,718.7,63.9,719.3z M64.2,728.9
			c-0.3-0.5-0.3-0.8,0-1.3c1.6,3.5,1.1-1.3,0.8-2.4c0.5,0.3,1.1,0.8,1.6,1.3c-1.6,0.5-0.5,0.8-0.3,1.9l1.1,4.5
			c-2.7-2.1-2.9-3.5-3.2-3.7V728.9z M64.5,726.5v-0.3c0,0.3,0,0.5,0,0.8V726.5z M60.7,721.9c-0.5-0.5-1.1-1.1-1.6-1.1
			c0.3-0.3,0.3-0.5,0.3-0.5c1.6,0.5,2.9,1.9,4,3.2c-1.6,1.6-2.9,0.3-4.3-0.3c0-0.3,0-0.3,0-0.5C59.4,722.7,61.3,722.7,60.7,721.9z
			 M68.2,724.1c0.8,0.8,1.9,1.3,2.7,2.1C69.8,725.7,69,724.9,68.2,724.1z M58.1,716.1l-0.3-0.3c0.3-0.3,0.8-0.5,1.1-0.5
			C58.6,715.5,58.3,715.8,58.1,716.1z M86.7,747.1l-2.4,0.5c-1.1,0.8-2.4,2.9-7.2,4.3c-0.3,0-9.1,4-8.6,2.7
			c1.3-1.6,12.3-3.2,17.9-9.6C86.4,745.8,86.7,746.3,86.7,747.1z M85.9,726c0.3,2.1,0.8,12.6,0,14.7c-1.6,1.3-2.9,2.9-4.5,4
			c-4.3,3.5-10.7,2.1-14.7,6.4c0,0,0-0.3,0-0.5c7-5.4,16.9-5.1,19-11c0.8-2.9-0.3-6.4-0.3-9.4c0-8.3-1.1-5.9-2.1-12.3
			c-0.3-0.8-1.1-0.5-1.3-0.3c0-1.3,0.8-2.9,1.6-4c0.3,1.3,0,2.7,0.3,4C84.3,720.6,85.4,723.3,85.9,726z M331.3,673.5
			C328.6,674.6,331.6,671.1,331.3,673.5z M359.4,747.1c-1.3-2.4-1.9-5.4-1.6-8l3.5-2.1c-4.5,4-3.2,10.7,0.8,6.4
			c1.9-2.4,7.8-5.9,10.7-4.8C367.4,739.3,362.1,742.3,359.4,747.1z M374.9,758.9c-1.9,0.5-2.9-0.3-4.3-1.1c0-2.4-1.3-2.7,3.2-2.1
			c2.1,0,1.6,0.8,1.9,2.7C375.4,758.6,375.2,758.6,374.9,758.9z M378.7,752.7c-1.1,0-2.4,0.5-3.5,0.8c-2.4,0.5-10.4,0-11.2,2.9
			c-0.5,0-1.3-0.3-1.6-1.1c2.9-0.3,4.3-2.9,11.5-3.5c0,0,3.5,0,3.5-0.3c-0.3,0.8,1.6,1.1,1.9,1.1
			C379.2,752.7,378.9,752.7,378.7,752.7z M378.4,751.1c-0.5-0.8-10.4,0.3-12.8,1.3c4-2.9,9.6-2.1,14.5-2.1c4.8,0,9.6-0.3,13.9,2.1
			c-1.3-0.5-11.2-2.1-12.8-1.6c-0.5,0.3-0.3,0.8-1.1,0.8C379.7,751.7,378.4,751.4,378.4,751.1z M386.7,757.5
			c-1.1,0.3-1.9,0.5-2.9,0.5c-0.8-3.2,1.1-3.7,3.5-3.2c0.3,0.8,0.5,1.6,1.1,2.1C387.8,757.3,387.2,757.3,386.7,757.5z M395.8,755.1
			l-1.3-0.5c0,0.3,0,0.3,0,0.3c-4.3-1.9-9.4-2.1-13.9-2.1c1.1,0,1.1-1.3,3.2-0.8c3.5,0.8,5.6,0.5,10.4,2.1l0,0L395.8,755.1z
			 M396.3,751.7c-3.2-5.4-29.7-9.4-33.2-1.9c-0.8,1.3-1.6,2.1-2.7,3.5c-1.9-1.6,2.1-5.6,3.7-6.7c2.1-1.6,5.6-1.3,5.9-2.1
			c0.3-1.1,1.6-2.4,3.2,0.3c0.3,0.3,0.8,0.3,0.8-0.3c0-1.1,1.9-1.3,1.3-0.3c-0.3,1.1,3.7,0.8,4.3,0.8c5.6-0.3,7.2,1.1,11.8,2.4
			c4,1.1,5.4,2.7,5.4,2.7C396.9,750.6,396.9,751.1,396.3,751.7z"/>
		<path fill="#FFFFFF" d="M240.8,464c0.5-1.1,0-0.8,0.8-1.9c-8.6-4.3-25.4,5.9-32.9,10.4c-19,10.2-25.4,8-41.7,14.2l-5.4,2.7
			c-0.5,0-0.3,0.8,0.3,0.8c28.6-7.5,21.4,0,49-17.7c9.6-6.2,13.6-7.8,24.9-9.9c0,0.5-1.3,0.8-1.9,1.1
			C235.2,465,239.2,464.5,240.8,464z M228.8,495.5c-16.6,0.3-47.9,3.7-61.8-0.8c-1.1-0.3-10.2-1.9-3.7,0.3c22.7,7,34.8,5.6,58.1,1.9
			C226.1,496.1,225,496.4,228.8,495.5z M241.1,468c1.1-0.5-2.4-3.2-6.2-0.3C235,467.7,240.8,468,241.1,468z M246.7,566.5
			c-2.4-0.8-4.8-2.1-7.5-3.2l4.8,1.1c-1.9-0.5-7.2-3.2-8.6-2.9c0.3,0.8,2.1,1.3,2.9,1.6C236.8,564.1,246.7,566.5,246.7,566.5z
			 M330.8,620.8c-5.6,0.3-11.5-0.3-16.3,3.5c3.7,0.8,6.7,0,10.4-0.3v0.5c-2.4,1.1-7,2.4-8.6,4.5c4.5,0.5,7.5-1.3,10.7-4.3
			c1.1-1.9,4.5-1.3,6.4-1.3c0,0,2.1,0,1.9,0.3c-1.1,6.4-17.1,8.8-20.6,11.2c0,0.3,0,0,0,0.3c6.2,2.4,13.1-1.6,17.9-4.5
			c1.1-0.8,2.7-1.1,3.5-2.1c0.8-1.3,1.3-2.4,2.4-3.5c0.3-0.3,0.5-0.5,0.8-1.1c0,0.3,0.3,0,0.3,0C339.9,620,333.2,620.5,330.8,620.8z
			 M242.4,473.6c10.4,3.5,1.9-4-4-0.8C239.8,473.1,241.1,473.3,242.4,473.6z M289,587.6c-4.5,4-14.7,5.6-12.3,1.9
			c1.3-1.9,4.5-2.1,6.2-4.3c1.1-1.6-7,1.1-9.9,1.1c-2.9,0.3-6.7-2.1-6.4-5.6c0.3,0,0-0.3-0.3-0.3c-7.2-2.1-14.7-10.2-21.4-12.8
			c1.9,0.5,3.7,1.3,5.9,1.6l0,0c-4-1.1-7.5-3.5-11.2-4.8c0-0.3-0.3,0,0,0c1.6,1.3,3.2,2.1,5.1,2.9c-1.9-0.8-2.4-1.3-2.7-0.5
			c-0.3,0.5,8.8,9.6,9.9,10.4c4.3,3.7,8.6,6.7,12.3,11c5.9,7.2,6.4,8,15,8.3l7.5-0.8c0.5,0,0.5-1.1,0-1.1c-2.7-0.5-7,1.3-9.4-0.3
			c4.3-1.3,11.5-1.1,12.6-6.2C290.1,587.6,289.5,587.3,289,587.6z M310.7,591.6c0.5,0.3,1.1,0.5,0.3,0c0.3-0.5-5.4-3.2-8.3-2.7
			c-4.8,0.5-6.7,3.5-5.6,3.7c4.8,1.3,5.6,0.3,9.6-0.8C308,591.6,309.3,591.9,310.7,591.6z M304.3,641.4c0,0,0-0.3,0-0.5
			c5.1-0.5,4-3.5,5.6-8c3.5-11.2,1.1-13.9,15-15.3c3.7-0.3,5.9,0.5,9.1-1.1c1.3-0.8-0.8-6.2-3.5-2.9c-1.1,1.6-8.3,0.3-11,1.1
			c-6.4,1.9-9.1,7-13.1,11.8c0-0.3,0.8-1.6,1.1-1.9c-3.2,2.1-4,6.2-5.1,9.6c0-1.1,0.5-3.5,0.5-4c-1.1,1.6-1.9,5.6-2.4,6.2
			c-0.3-0.5-0.3-0.5-0.3-1.1c-1.1,1.9,1.9,8.8,2.9,10.7c0-0.5,0.3-4.3,0.5-4.5C303.7,641.7,303.7,641.7,304.3,641.4z M222.1,512.7
			c-24.6,0.3-30-2.1-52.7-10.2c-0.3-0.3-3.5-1.3-3.7-0.5C179.6,511.1,205.2,517.5,222.1,512.7z M215.1,405.1l1.1,1.9
			c2.7,3.7,5.1,15.8,1.6,19.5c0,0-1.6-8.3-1.6-8.8c1.3,1.3,1.3,4.5,2.1,6.4c0.3,0,0.5,0,0.8,0c0-2.7-1.9-15.5-3.7-17.1
			c-0.8,0.3-0.5,1.3-0.5,2.7c-1.9-2.1-2.9-1.1-2.9,0.3c-0.5-0.3-0.5-0.5-1.1-0.5C210.9,409.4,214.6,405.9,215.1,405.1z M201,425.4
			c-0.8-3.5,0.5-4.5-0.8-8c3.2-0.8-1.1,8.3,4.8,8.8c10.7,1.1,1.9,4.5,0,5.9C204.2,429.4,202.8,427.6,201,425.4z M189.2,419.5
			l-0.5-0.3c-1.9,3.2,1.6,12.8,1.3,15.3c-1.3-0.5-2.7-11.8-2.9-13.4c-0.8,0.3-0.5,0.5-0.8,1.3c-1.6-4.3,0.8-5.6,4.8-4.8
			c0.8,7.5,1.6,11,2.4,18.2c-2.4-7-0.3-2.4-3.2-7.5C189.2,426.2,189.2,422,189.2,419.5z M182.5,425.4c0.5,2.7,2.9,11.8,1.3,12.3
			c-0.8-3.2-2.4-15.3-3.7-16.3c-1.1,0.3,2.7,17.4,1.9,18.2c-1.3-5.4-2.4-13.6-3.2-19.5c1.1-1.1,4-1.6,5.4-1.1l0.5,0.8
			c0,0.3,2.9,17.9,2.9,18.5c-0.3,0-0.5,0.3-0.5,0.3c-2.7-5.9-2.1-11.5-4.3-17.1C181.7,421.7,182.5,424.6,182.5,425.4z M187,429.2
			c-0.3-1.3-0.3-2.7-0.3-3.7c0,1.3,1.1,6.4,0.8,7.2C187,431.9,187,430.3,187,429.2z M192.4,421.4c0.3-0.5,0.5-0.5,0.5-1.1
			c2.1-0.3,1.9,0.8,4-1.3c-2.1,0.3-2.4,1.9-5.1-0.5c1.9-0.8,7.5-2.9,7.8,0L192.4,421.4z M195.9,434.3l8-2.9v0.8
			c-1.6,1.1-7.5,2.9-9.1,3.2c0.3-0.8,0-0.3,0-0.8C195.3,434.5,195.3,434.5,195.9,434.3z M114.5,419.3c1.6-3.5,1.9-4,5.1-2.1
			c-3.7,1.3-3.2,8.6-1.6,12l2.9,6.7c-5.4-2.1-5.9-6.2-7-11.2C113.5,422.2,113.7,421.7,114.5,419.3z M114,414.7
			c0.5,0,1.3,0.3,1.6,0.3c0,0.3-0.5,0.8-0.5,1.1C114.8,415.5,114.3,415,114,414.7z M149.9,423.8c9.9-1.3,16.9,0.3,27.8-2.4
			c0.8,0.3,0,0,0.5,0.8c-3.5,3.5-18.7,1.6-20.3,1.9c-0.5,0.3-0.5,0.8,0,0.8c4.3,1.1,8.6,0.5,11,0.8c0,0,0,0.3,0.3,0.3
			c-2.9,1.1-5.9,1.1-8.8,1.9c-2.4-1.9-9.9-1.6-13.1-1.3c-0.8,0.3-1.3,1.1-1.3,2.1c-1.1-1.3-11-3.5-12.8-2.4c-1.3-0.5-10.2-2.1-8-5.1
			C125.8,420.1,136.7,426.5,149.9,423.8z M119.9,431.1c-2.7-5.9-4.3-16.6,5.1-11.2c-4.3-2.7-4,5.9-0.5,12c1.1,2.4,1.3,4.8,3.2,6.4
			c-0.5,0-0.8-0.5-1.3-0.5c-2.9-1.1-3.7-0.5-4.5-3.5C121.5,433.2,120.4,432.1,119.9,431.1z M144.5,431.1h0.3H144.5z M146.1,431.1
			c0,0,0,0,0.3,0C146.1,431.1,146.1,431.1,146.1,431.1z M146.6,431.1h0.3v0.3v-0.3H146.6z M147.2,431.3c0.3,0,0.5,0,0.8,0
			C147.7,431.3,147.4,431.3,147.2,431.3z M148.2,431.1c0.3,0,0.3,0,0.5,0C148.5,431.1,148.5,431.1,148.2,431.1z M162.4,436.4
			c0,0.3,0,0.3,0.3,0.5C162.4,436.7,162.4,436.7,162.4,436.4z M163.2,441.5v0.3V441.5z M163.2,441.8c0,0,0,0,0,0.3
			C163.2,441.8,163.2,441.8,163.2,441.8z M163.2,442L163.2,442L163.2,442z M163,442.3c-0.3,0.5-0.5,0.8-1.3,0.8
			c0.5-0.3,1.1-0.5,1.3-0.5V442.3z M100.9,440.2l2.4-2.7l0.8,2.1h0.3c0.3-1.1,0.5-4.3,0.8-4.5c2.7,4.8,6.2,6.7,10.2,10.7
			c-1.3-0.8-2.9-1.1-4.5-1.6c-3.2-1.1-6.4-3.7-9.6-2.7C100.9,441,100.9,441,100.9,440.2z M98.5,446.6c0-0.3,0.3-0.3,0.3-0.5
			c6.2,1.6,9.9,0.5,16.3,3.7c1.9,1.1,4.5,3.7,4.5,3.2c-1.3-5.4-13.9-8.3-19-8.3c0.3-0.3,0.5-0.3,0.8-0.8c6.2,1.6,11.5,1.3,18.5,6.4
			c3.7,2.7,5.9,6.7,11,8c0.5,0,0.8-0.5,0.3-0.8c-3.7-1.9-5.4-5.9-8.6-8.6c-2.9-2.7-4.8-2.7-7.8-5.6s-12.6-9.6-6.7-13.6
			c1.3-1.1,1.3-1.1,1.3-1.1h0.3c0.3,0.8,0,0.5,0.5,1.1c2.9-1.6-1.6-7.5-1.1-10.2c0.5-2.1,1.1-4.5,1.6-6.2c0.3,0,0.3,0.3,0.5,0.3l0,0
			c1.9,2.4-2.9,9.6-0.8,9.1c1.9,2.1,0.5,6.7,0.8,6.7c1.9-0.3,0.8-3.2,1.1-4.3c0.5-0.3,1.9,5.9,2.7,7c2.1,2.7,3.2,4,6.4,4.5
			c1.3,1.6,3.5,1.3,5.1,2.4c0.5,0.5,2.4,0.8,2.7-0.3c3.7,1.9,6.4,5.4,14.5,7c1.3,0.3,4.8,3.7,4.3,1.6c-0.3-0.8,1.6,0.8,1.9,1.6
			c-1.3,0-2.9,0.5-4.3-0.3c-0.5-0.3-1.1-0.5-1.6-0.8c-6.2-2.1-4.8-1.1-11.2-4.8c-3.5-2.1-6.7-2.4-1.6-0.3l10.7,5.4
			c2.4,1.1,2.9,2.4,4.3,2.9c-0.3,0.5-0.3,1.3-0.3,1.9c-10.2-1.9-12.8-7.2-21.4-11.2c-0.3-0.3-0.5,0.3-0.3,0.5
			c5.1,5.1,21.7,14.2,22.7,19.5c0.5,2.7,2.9,11.8,4,14.7c-4.3-5.1-19.5-8.6-25.2-14.2c0,0,0,0-0.3,0c-7.8-7.5-11.8-9.9-21.4-13.6
			C102.2,447.9,100.3,447.1,98.5,446.6L98.5,446.6z M94.7,469.3c7,0.3,10.7,2.1,14.2,2.1c0.5-2.1-7.8-5.6-9.1-6.4
			c0.5,0.3,0.5,0.3,0.8,0c-2.1-1.3-4.5-0.8-4.8-3.5c3.7-2.1,18.7,9.6,21.7,12.3c7.8,7.2,16.6,13.4,25.7,18.7
			c0.5,0.3,1.1-0.3,0.8-0.5c-1.9-3.7-7-5.1-10.2-7.8c-2.4-1.9-11.5-11-13.9-13.1c-7.5-8.3-8.3-7.8-18.2-11.8c-1.1-0.5-4-1.6-4-2.9
			c0-3.2,9.1,1.1,10.2,1.6c11,5.1,14.7,12,23.5,19c5.6,4.3,16.1,12.6,23,14.5c1.6,0.5,0-3.2-0.8-1.9c-5.6-2.4-19.5-14.7-24.1-19.5
			c-11-10.7-13.1-13.4-27.6-19.5c-1.3-0.8-4.8-2.1-6.2-0.3c0-4,0.5-3.7,8-0.8c11.5,4.5,16.3,9.4,25.2,17.7
			c4.5,5.1,10.7,8.8,16.1,12.8l0,0c-3.2-3.7-7.8-6.4-11.2-9.9c4.3,2.4,8.6,4.5,12.8,7.5c2.1,1.6,4.5,4,7,5.1
			c0.3,0.3,0.3,1.1,0.8,1.1c0.3,3.5,1.1,3.7,1.6,6.4c-0.5,0,1.3,7.2,1.6,8c0.8,2.4,1.1,1.9,0.3,3.7c-6.7,0.8-29.2-12.8-37.2-16.6
			c-3.7-1.9-27.6-11.5-28.1-15.3C93.4,469.6,93.9,469.6,94.7,469.3z M47.9,711.2c-2.1-1.1-3.2-11.2-3.2-13.4
			c-0.3-4,0.3-7.8-0.3-11.8l-1.6-11.2c2.4,4.5,5.1,8.8,7.2,13.4c0.3,0,0.3,0,0.3-0.3c-0.8-3.2-2.1-6.2-3.5-9.4
			c-5.4-11.5-7-19.8-8.6-32.6c-0.8-7.5-2.1-14.7-2.4-22.2c-0.3-3.5,0.3-7.8-1.6-10.7c-1.3-3.5-1.1-10.2-0.8-13.6
			c0.5-4.8,2.7-11.8,3.5-18.5c1.1-9.1,0-8.3,3.7-17.7l2.9-8.6c0.5-0.8,1.1-1.6,1.3-2.4c9.9-26.5,6.2-33.7,24.1-61.6
			c4.5-7,17.7-21.9,19.3-27.6c0.8-1.9,2.4-2.4,3.7-4c0.3,6.2-17.4,26-20.6,31.3c-15,23.5-15,26.8-21.1,50.3
			c-2.7,9.9-7.2,17.4-10.2,28.6c-0.5,3.7,0.3,6.7,2.9,9.6c-1.1-0.3-1.6-1.6-4-1.9c-1.1-0.3-0.8,5.4-0.5,6.2c0.5,1.3,1.6,2.7,2.1,4
			c-3.5-1.1-2.9-5.1-4.5,5.1c-0.3,0.3,0,0.5,0,0.5c-1.3,5.6-3.5,14.7,0.5,19.8c1.3,1.3,3.5,2.1,5.1,3.2c-2.1,0.3-5.1-1.3-5.4-0.3
			c-0.3,7.2,1.3,14.2,2.1,21.1c0.8,7.2,1.6,14.2,3.5,20.9l6.7,19.8c2.1,4.8,5.6,9.9,5.9,15.5c-1.6-1.1-2.4-4-3.5-2.9
			c-0.3,0.3-0.3,0.8,0,1.1c1.3,1.1,3.5,6.2,0,5.4c-2.9-0.5-3.2-7-4.5-6.2c-1.3,0.8-1.1,2.4-1.1,3.7c0.3,3.2,0.3,3.2,2.7,4.8
			c1.6,1.1,3.2,4.3,5.4,2.9c0.5-0.3,2.1-1.9,2.7-0.3c0.5,2.9-7.5,0.8-8.6,3.2c-0.5,2.1,0.8,6.2,3.2,7
			C49.8,711.8,48.7,711.8,47.9,711.2z M156.3,509.2c-13.6-3.2-35.9-10.4-49.5-7.2c3.2,2.1,4.5,2.1,8.3,3.2
			c4.3,1.1,15.3,3.7,18.7,6.2c-4.3,5.1-21.4,6.4-26.8,8c16.3,1.9,27.8-8,36.4-5.6c2.1,0.5,5.9,0.8,7.2,1.6
			c-5.1,5.9-42.6,11.5-52.7,14.7c10.2,1.9,36.9-4,48.4-7.5c-17.4,7.8-9.9,9.9-36.1,17.7c-5.9,1.9-13.1,3.2-18.2,6.4
			c7.5-0.3,27.8-5.9,36.1-10.2c2.4-1.3,5.1-2.7,6.7,0.3c-3.2,7.8-46.3,41.7-54.1,41.7l-5.6-0.3c-0.3,0-0.5,0.5,0,0.5
			c3.2,1.1,7,0.8,9.9,2.1c0.3,1.1,0.8,1.9,1.1,2.7c-1.1,1.3-1.9,1.1-3.7,1.3c-2.1,0-4.5-0.3-6.7-0.5c-0.5-0.8-1.9,0.5-1.1,0.8
			c0.8,0.8,2.7,3.5,4,2.9c-0.3-0.5-1.3-1.6-1.6-1.6c4.3,1.3,3.5,0,4,3.7c0.5,3.7-6.2-1.9-6.7-2.4c-3.5-3.5-2.7-3.2-7.2-5.9
			c-4.5-2.1-4.3,2.1-2.9,1.3c2.1-1.3,4.3,1.6,5.4,2.7c1.9,1.3,3.5,2.9,5.1,4.5l-6.4-4c4,3.7,4.8,3.7,8.6,6.7c7.2,5.4-1.9,4,4.8,11
			c1.3,1.3,1.9,2.4,1.3,4.3c-4.5-1.6-16.9-13.9-22.7-13.4c-0.3,1.3,2.9,1.1,5.1,2.7c4,2.9,16.3,12.8,18.5,16.6
			c7.2,12.6-4.5,28.9-2.4,39.6l0.3,0.5c0.3,0,0.5-1.1,0.5-1.6c1.9,3.2-1.6,17.4-1.6,22.2l1.6-6.2c0.3,2.7,1.1,5.1,1.3,7.5
			c1.3,10.2-0.8,19.8-0.3,26.5c0.5,7,1.6,7-3.5,9.4c-9.4,4.5-12.3-2.7-27-0.8c2.1-1.1,2.4-1.1,4.8-1.6c3.2-0.5,5.4-5.6,4.8-8.6
			c-0.3-0.8-0.8-1.6-1.1-2.4c-1.1-2.1-2.7-8.3-4-12c0.8,1.1,6.4,2.9,5.1,1.1c-3.7-5.9-9.4-7-11.5-18.7c2.1,2.4,5.1,4.3,7,6.4
			c0.5,0.5,1.9-0.5,1.6-1.1c-1.6-3.7-8.3-9.6-10.4-15.8l-3.7-18.5c-0.8-4.8-1.3-9.6-2.1-14.2c-0.3-1.6-1.1-4,0.5-5.1
			c2.4-1.1,9.1,1.9,8-0.3c-2.4-5.6-7.5-5.9-12-11.5c-0.3-1.3-2.7-4-2.7-5.4c-1.1-19.3,7-8.3,8.6-10.2c1.6-2.1-2.1-2.1-2.9-6.2
			c-0.5-1.9-1.3-2.4-0.8-4c0.8-3.5,12,1.1,8-6.2c-2.7-4.8-9.4-6.7-3.7-12.6c1.9-1.9,7.8-2.1,9.9-3.2c1.6-1.1-2.4-1.9-2.7-1.9
			c-5.9,0.8-4.5-3.5-4.3-4c3.5-4.8,6.7-6.4,10.2-11l-0.3-0.8c-2.9,0.5-4,1.3-7,1.9c-1.6-3.5,8.6-28.9,14.7-33.7
			c17.4-12.6,16.9-7,34-11c0.5-0.3,0.3-0.3,1.3-0.5c-2.1-1.3-17.7-2.9-22.7-4.3c2.4-8.3,17.4-18.2,27.8-14.7
			c6.2,1.9,17.7,7.5,24.9,10.7c4.8,2.1,27.6,12.3,28.1,17.1C159.2,509.7,157.3,509.2,156.3,509.2z M83.8,579.8
			c-0.3-0.3-0.5-0.3-0.8-0.3L83.8,579.8z M167.8,510.5c1.6,1.3,3.2,2.9,5.1,4.3C171,513.5,169.4,512.1,167.8,510.5z M288.7,629.9
			c0,0.3,0,0.3,0,0.5c-1.6-5.6-2.4-19.8-8-23.3l0.3,2.7c0-0.3-4.5-7-7-9.1c-0.5-0.5-0.5-0.3-0.5-0.8c3.7,1.1,4.8,2.7,7.2,5.9
			c0.5-0.3,0.3,0,0.8-0.8c2.4,2.4,8.6,19.8,8,22.7C289.3,628,289.3,628.6,288.7,629.9z M306.4,652.1l1.6,1.9
			c-4.5-3.2-7.8-10.4-9.4-15.5c-0.8-2.9-0.5-4-2.9-4.8c-2.1,4,0.3,5.1,0.8,9.4h-0.8c-4.8-4.8-2.9-8.8,0.5-13.4
			c-0.3,0.3,0,0.3-0.3,0.5c5.4-3.7,11.8-10.7,9.6-17.7c-1.1,2.9,0,4.8-2.4,8c5.1-12.8-7.5-7.8-7.2-6.2l1.1,1.9
			c1.6,4.5-4,9.4-5.4,14.5l-1.1,4c-1.1-4.5,2.9-18.2,3.2-18.5c-1.1-0.8-1.3,0.3-2.7,0.8l-1.1-0.5c-0.8-8.6,14.7-10.2,17.4-17.4
			c-7-2.1-17.4,15-23.5,6.7c-5.4-7.8,14.7-7.5,17.7-7.8l0,0c0.8-0.3,0.8-1.3,0-1.3c-5.6-0.3-12-1.6-17.1,1.3
			c-2.7,1.6-2.1,1.6-5.1,1.6c-2.1,0-6.2-2.7-8.8-3.5c-2.9-1.1-4.3-4.8-6.7-7c-4-4.3-11-9.4-17.7-16.1c-5.9-5.9-10.7-11.5-17.1-17.4
			c1.1-0.3,7.2,3.7,8.8,4.5c-12.6-10.7-20.9-12.3-33.2-20.6c0.8,0,26.2,9.1,29.4,9.9c-20.9-11-29.7-12.8-51.1-28.1
			c-4-3.2-17.1-11.5-19-16.3c-1.6-4-2.7-7.5-4.5-11.5l0,0c1.9,4.3,3.7,9.6,4.5,13.9c-0.8-0.8-1.6-3.2-2.4-4.3
			c-0.5,2.1,1.1,4.5,0.8,6.2c-2.9-4.3-4.8-13.6-6.2-18.7c0.3,0.3,1.1-0.3,1.3-0.5v0.3c2.1,0.5,9.1-5.6,6.4-4.8l-6.4,3.5
			c-1.6,1.6-1.6-0.8-2.1-2.7c0-0.3-1.3-6.7-1.1-4c-1.9-3.5-2.9-8.3-4-12.3c-1.1-4-4.3-14.7-3.2-18.5c0-0.3-0.3-0.5-0.3-0.5
			c0.3-0.3,0.3-0.5,0.3-0.8c0.8-0.3,1.6-0.8,2.7-0.8l0.3,1.6l0,0c0.3,0.3,0.8,0.3,0.8-0.3c0-4.8-1.6-3.7,3.5-4.3
			c1.6-0.3,4-1.3,5.4-0.5c-0.3,1.6-1.3,2.1-2.7,2.1c-0.3,0-0.5-0.3-0.8,0c-1.6,6.2,6.4,31,6.4,29.7c-0.3-4-4.3-15-5.1-22.7
			c-0.3-2.1,0-4.3-0.5-6.4c3.2,0,5.4-2.1,7.8-4.3c0.3,0,0-0.5-0.3-0.3c-1.9,0.8-1.9,1.9-3.7,1.1v-0.8c1.9-0.3,3.5-0.8,4-2.9
			c2.9-0.8,6.4-0.8,9.4-1.3c1.6-0.5,3.5-1.1,5.4-1.3c-1.3,0.8-4.8,2.1-5.4,2.7c2.4,1.1,4.8-0.3,6.7-1.6c0.3,0.8-0.3,0.3,0.5,1.3
			c-0.8,1.1-6.4,3.5-7.8,4.5c-1.3,0.3-4.3,0.3-5.9,0.3c0.5-1.1-1.6-0.3-1.6-0.3c-2.7,0.3-3.2,1.9-2.7,1.9s3.7,0,4-0.3
			c0.5,0,3.7,0.3,3.7-0.5c0.3-0.3,0.5-0.3,0.8-0.3l5.1-1.9c5.4-2.4,12.6-5.9,17.7-7.5c2.4-2.4,14.7-4,19.8-7.5
			c0.8-0.8,1.1-0.8,1.3-1.1c0.3,0.8-4.3,3.7,1.1,1.6c2.7-0.8,13.1,4.3,7-1.6c-1.3-1.1-3.5-1.1-5.1-1.1c0,0,0.5-0.3,0.8-0.3
			c0.5-0.5,1.3-2.7,1.9-2.9c0.5,0.3,0.5,0,0.8,0.3c0,0.5,6.4,9.9,8.6,16.6c0.3,1.3,4,7.8,3.2,9.4c-0.8,0-1.1,0.3-1.6,0
			c1.6-8.8-18.2-4.8-21.1-3.7c-5.1,1.6-18.2,7.2-21.7,6.2c0.5-0.3,2.4-1.3,2.4-2.1c-2.9-2.1-12.6-0.3-18.2-0.5
			c-6.2-0.5-8.3,1.1-1.6,1.6c9.1,0.5,10.2,3.2,20.3,3.2c-0.3,0.5-1.3,1.1-1.3,1.6c14.2-0.8,20.1-7,30-8.6c-2.1,1.9-4.3,2.4-5.9,4
			c1.3-0.3,13.6-8,13.4-3.5c-0.5,3.2-20.9,9.6-26.5,10.4h5.4c10.4,0,26.5-10.2,32.1-3.5c-2.7,0.5-0.5-4.5-21.1,2.9
			c-10.7,4-16.9,6.4-28.4,7.2c-3.7,0-7.8-0.3-11.5-0.5c-3.7-0.8-9.4-2.9-12.3-0.3c-1.6,0-2.4,5.6,0.5,5.6c2.4,0.3,8.6-2.4,12,0
			c1.1,0.5,1.6,2.1,0.5,3.2c-2.4,2.4-10.7,0.5-13.6,5.9c-0.5,1.1,0,2.7,0.8,2.4c0,0,0.3,0.3,0.3,0c1.6-2.4,12.8-5.1,15.8-6.2
			c5.9-2.1,11.5-4.3,17.1-6.7c6.7-2.4,26.2-11.8,31.8-11.5c-0.3,0.8,0.3,0.5-1.3,1.3c7.5,1.1,11.2-4,14.2,2.4l-0.5,0.3
			c-1.6-2.1-1.9-2.9-4.8-1.9c2.7,1.1,5.4,5.1,7.2,7.2c-0.8-0.5-0.8-0.5-1.6-1.1c-1.1,1.9,9.4,11,9.4,11.2c-4.3-0.8,6.2,8.8,8,12
			c3.2,5.4,6.2,11.2,9.1,16.6c-7.5-13.9-13.6-21.1-23-33.7c-2.4-2.9-3.5-4.8-6.4-7.5c7,12,19,23.3,27.3,38.8
			c6.7,12.3,7.2,21.4,12,30.5c-1.1-4.5-5.1-17.4-7-21.9c2.9,7,5.6,15.5,8,23c1.3,4.5-0.8,5.6,4,10.2c2.4,2.1,2.7,2.9,1.9,5.4
			c-0.5-0.3-4.5,4.3-3.5,8.6c0.3,1.3,2.9-2.9,4.3-1.9c0.3,0.3,0.8,3.5,2.4,3.7c1.3,0.3-0.8-4-2.1-4.5c-0.3-0.8-0.5-1.6,0-2.1
			c0.3,0,0.5,0,0.5,0c2.9,2.4,1.6,4.8,3.5,4.5c5.9-0.5,3.5,3.5,3.5,5.1c-1.3-1.6-3.5-2.4-1.9-1.1l0,0c0.5,0.5,0.3,1.1,0.8,1.3
			c0,0.3-0.3,0.3-0.3,0.5l0,0c0.3-1.9-2.1,0.8-5.1,0c-0.3,0-0.5,0.5-0.3,0.5c0.8,1.6,8,8.8,9.6,6.2c0.3,0.3,0.8,0.8,0.8,0.3
			c0-2.4-2.1-4.8-3.5-7c0.3,0,0.5-0.3,0.8-0.5c1.3,0.5,0.8,2.9,2.7,2.7c2.1-0.3,2.1,1.3,2.4,2.9c-1.1-2.7-5.1-2.9-2.4,0.8
			c0.5,0.5,2.1,0.8,2.4,0.3c0.3,4.3,2.4-0.3,4.8,3.5c0.5,0.5,0.3,1.1,0.3,1.9c-0.3,0-0.3-0.3-0.5-0.3c-0.3-1.9-2.9-2.4-2.4-1.9
			l1.3,1.9c-0.5,1.6,6.7,3.7,9.6,7.8c-3.2,0.3,1.1,2.4,1.9,3.2c0.3,0.5,0.5,0.5,1.1,0.5c1.1,0.8,1.9,1.9,2.7,2.9
			c-1.6-1.6-3.5-2.7-5.6-3.5c-1.1-0.5,5.6,5.1,6.4,5.1c0.5,0.3-0.3-1.1-0.5-1.3c1.9,1.9,2.9,4.3,4.5,6.4c1.3,1.9,2.9,3.5,4.3,5.4
			c2.9,4,5.6,9.6,8,14.2l-1.3-1.3c0-1.1-3.5-3.7-4-4.5c-1.9-2.1-4.5-8.6-7.2-12c-1.3-1.6-2.9-2.9-4.3-4.5c0.5-2.9-13.6-11.8-7.2-6.7
			c-4-2.7-21.1-9.4-23.3-2.7c-0.3,0.3,0.3,0.5,0.5,0.3c4-2.9,8.8-0.8,12.8,1.3c4.3,2.1,9.6,2.9,13.9,5.4h0.3
			c0.8,0.8,1.3,1.6,2.1,2.1c1.3,2.4,2.4,2.7,4,4.5c-1.6-0.8-2.9,0.5-3.5,2.4c-1.3,4.8-7.8,5.9-8.6,9.4c-0.5,1.3,4.8-0.5,5.4-0.5
			c4.5-1.6,9.6,1.3,6.7-3.2c-0.8-1.6,0.8-2.9,1.9-1.9c1.1,1.1,1.1,2.9,1.9,4.3c0.8,0.8,2.4,1.3,2.4-0.3c1.3,2.4,3.2,4.8,5.1,6.7
			c0.5,0.5,0.3,2.1,3.7,5.6c5.6,5.6,5.6,6.2,8.6,13.4c-1.1-0.5-2.4-0.8-3.5-0.8c0,0,0,0,0-0.3c4.8-0.8,1.1-0.8,0-1.6
			c1.9-1.9,0-4.8,0-3.7c0,0.8,0,1.6-0.3,2.4c0-1.6-2.4-4.5-2.7-3.2c-0.5,3.7,0,3.5-3.2,5.6l-12,6.2c-2.9,1.6-19.8,8.3-20.3,8.8
			C305.3,649.2,306.1,650.5,306.4,652.1z M309.9,650.5c-0.3,0.5-0.5,0.8-0.5,1.3l-0.3-0.3c2.4-4.8,12-7,17.1-9.4
			c4.5-2.1,13.9-8.3,18.2-8.6c-4.5,1.9-9.1,4.8-13.6,7.2C324.9,643.8,314.2,646.7,309.9,650.5z M331.3,673.5
			C328.6,674.6,331.6,671.1,331.3,673.5z M229.1,439.6c-2.1-0.8-15.8-2.1-15.5,1.1c2.7,2.7,13.9,3.7,16.9,2.4
			C230.9,441,230.7,441.2,229.1,439.6z M77.1,697.1c-6.7-2.9-13.6,6.7-11.2,6.2c2.1-0.5,4-2.1,6.2-2.9c2.7-1.3,7.2,0,5.6,3.7v0.3
			c-0.3,0.5-0.5,0.8-1.1,1.3c-0.3,0.3,0.3,0.8,0.5,0.5C80,703.7,81.3,698.7,77.1,697.1z M64.5,706.7c1.1-0.5,2.1-1.1,3.2-1.6
			C66.9,705.9,65.6,706.4,64.5,706.7z M68.8,703.7h-0.3c-1.6-0.5-3.7,1.6-5.4,1.3c-0.8-0.3-1.9,1.9-1.1,2.4c2.1,1.6,7-0.5,7.5-3.2
			C69.6,703.7,69.3,703.5,68.8,703.7z M127.6,441c1.3,0.3-1.1-1.3-2.7-2.1c-5.9-2.1-8.8-2.9-13.6-7.2c-1.1-1.1-2.1-1.6-3.2-1.9
			c-0.3,0.3,0,0-0.3,0.3c7.5,8.3,8,6.4,17.9,10.2C126.6,440.4,127.1,441,127.6,441z M165.4,483.5c1.6-1.3-1.3-3.2-1.6-2.4
			c-1.6,4-9.6,2.7-8,3.2C157.9,485.1,164,485.9,165.4,483.5z M80.8,632.3c0,0,0.3,0,0.3,0.3v0.3c7.5-5.4-6.7-16.6-13.1-15.8
			C74.9,622.4,78.7,622.4,80.8,632.3z M308,579.3c0,2.9,3.7,3.7,5.1,4.5c0.5,0.3,1.3,0.8,1.3,0.3c0.3-0.8-0.8-1.1-2.4-2.4
			C311.8,581.5,308,577.4,308,579.3z M219.4,431.9c5.6,5.1-1.6,2.7,9.1,6.2c0.5,0.3,0.3,0.3,0.5,0c-1.6-2.9-6.4-6.4-9.9-6.4
			C219.2,431.9,219.4,431.9,219.4,431.9z M174.2,447.4c0.3,0.3,0.5,0,0.5,0c21.4-0.5,23.5-9.6,43.6-9.6c1.6-0.3,2.4,0,3.2-1.1
			c-2.4-8.3-10.4-3.7-17.9-1.1c-9.6,3.5-16.3,7.2-27.3,10.7C175.5,446.6,173.1,447.4,174.2,447.4z M243.2,476.8
			c0,0.3,9.9,4.3,10.4,3.7C251.5,477.4,246.7,476.8,243.2,476.8z M276.4,550.9c1.6-0.5,4.5-1.6,5.4-2.9c-2.7-3.5-2.7-6.4,1.1-1.3
			c0.3,0.3,0.3,0,0.5,0c-0.3-3.5-1.3-6.2-1.9-10.7c-3.5,0.8-1.3,7.5-4.5,12.8C276.2,550.1,276.4,550.1,276.4,550.9z M301.3,577.4
			c0.5,0.5,5.9,4.5,6.2,3.2c0,0,0.5,0.8,0.5,0.3C307.2,574,291.1,571.3,301.3,577.4z M77.1,684.5c-5.1-0.5-8.8,4.5-7.5,4.5
			c5.9-0.5,10.4-3.2,12,3.7c0,0.5,0.5,0.3,0.5,0C82.1,689.3,81.1,685.3,77.1,684.5z M79.5,661.5c-4.3-2.4-10.2,3.5-3.2,2.1
			c1.6-0.3,1.9-0.5,3.5,0.3c0.3,0.8-0.3,2.1,0,3.2C79.7,668.2,82.4,663.1,79.5,661.5z M69.8,674.3L69.8,674.3
			c-0.5-0.8-1.1-1.6-1.1-2.4C69,672.7,69.3,673.5,69.8,674.3z M69.6,670.6c-0.3-0.5-0.5-0.5-0.8-0.5c0,0-0.3,0-0.5,0.3
			c-1.1,3.2,3.7,7.5,4,7.5c1.9,2.7,4.3,4.5,6.7,6.7c0.5,0.5,1.1-0.3,0.8-0.8c-2.1-2.4-5.1-4.5-6.7-7c-1.3-1.9-1.9-4.3-3.5-5.9
			C69.6,670.6,69.6,670.6,69.6,670.6z M61.5,605.3c11.5,5.6,13.4,7.8,22.2,16.1c1.6-4.8-16.6-16.3-22.5-16.6
			C61.3,605.3,61.3,605,61.5,605.3z M74.4,629.6c1.6,4,2.7,2.7,3.7,7.8c0.8,2.9,0.3,7.5,1.3,8.6c4-3.7,1.1-11.5-3.5-14.7L74.4,629.6
			z M74.4,656.9c3.7-0.8,3.5,1.3,5.6,1.9l0.5-0.5c0-2.7-4.3-2.7-6.4-2.1C73.6,656.4,73.8,657.2,74.4,656.9z"/>
		<path fill="#FFFFFF" d="M146.9,431.1v0.3V431.1c0.8,0.3,1.6,0.3,3.2,0c2.4-0.3,4.8-0.8,7.2-1.1c0.3,0,0.3,0.3,0.5,0.5
			c-0.8,0-5.6,1.3-7,1.3c-2.7,0.5-5.4,0-8-0.3c0-0.3,0.3-0.5,0.5-0.5C145,431.1,145.6,431.1,146.9,431.1z M163,442.6
			c-0.3,0-0.8,0.3-1.3,0.5c-1.3,0.5-3.5,0.8-7.2,1.3c-1.3,0.3-4.3,0.5-5.6-0.3c3.5,0,6.7-0.8,9.6-1.6c1.1-0.3,2.7-0.3,2.7-1.6
			c0-1.1-1.3-2.7-0.8-3.7c0-0.3,0-0.3,0-0.3c0.3,0,0.8-0.3,1.1-0.3c0.3,1.6,1.9,4.5,0.3,5.6l0,0c2.4-0.3,0.8-4.3,0.5-5.9h0.3
			C163.2,439.9,163.8,441.5,163,442.6z M387.5,702.9c3.7,3.5,9.1,12.6,1.1,8.3c-0.5-0.3-1.1,0.3-1.1,0.8c-0.3-0.3-0.5-0.8-0.5-1.1
			c0.5,0,4.8,0.8,4.5-0.5c-0.5-2.7-7.8-1.9-11.5-8c0-0.3-0.5-0.3-0.5,0c-1.1-0.3,0,2.4-3.7,0.3c0.3,0,2.9,0,3.2-0.3
			c0.8-0.3-1.1-3.5-1.3-4L376,693C380.5,695.2,383.7,699.5,387.5,702.9z M386.4,716.1L386.4,716.1c-1.3,2.9,1.1,7-5.9,7.2
			c-0.8,0-1.3,0-2.1,0c-0.3-0.5,5.6-0.3,6.4-4.3c1.3-1.9,2.9-8,0-8v0.3c-0.3-0.3-0.3-0.5-0.5-0.8c0.3-1.6-3.5-3.5-3.5-1.9
			c-1.1-0.3-7-0.5-7.8,0c-0.8-1.1-1.1-2.4-1.9-3.7c0.3-0.8,2.1-0.8,1.1,0.3c-0.3,0.3,0,0.8,0.3,0.5l0.3,0.8c-0.3,0.3,0,0.8,0.5,0.5
			c0,0,0,0,0.3,0c-0.5,0.3-0.3,1.1,0.3,0.8c1.1-0.3,3.2,1.9,1.3-1.9c-0.3-0.5-1.3-1.9-0.8-2.4c4.5,5.1,0.5,3.7,5.6,4
			c5.4,0.3,5.4,2.7,7,5.1c1.9,3.2,1.3,8.8-2.1,10.4C386.7,721.7,387,718.2,386.4,716.1z M356.4,730c-1.3-1.3-2.1,0.3-4.3-2.4
			c-0.3-0.5-0.8-1.1-1.1-1.6l0,0c1.9,0.5,2.4,2.4,4.5,2.9c1.6,0.3,2.1-1.3,3.2-1.9C357.5,729.2,356.4,729.4,356.4,730z M356.4,732.4
			c-0.8,0.5-2.4,0-2.9-0.3c-1.9-0.5-1.1-1.3-0.5-2.1c1.3,0.8,2.9,0,3.5,1.9C356.7,732.1,356.7,732.4,356.4,732.4z M350,722.5
			c0.8,1.6,1.3-0.5,0.5,2.4l-1.3-0.3C349.5,724.1,349.8,723.3,350,722.5z M349,717.9c0,0-0.8,0.5-1.3,0.8l0.3-1.3
			c0.3,0.5,0.8,0.3,1.3,0l0,0C349.2,717.7,349.2,717.7,349,717.9z M352.2,705.6c-0.8-0.8-1.1-1.6-1.6-2.4c3.7-2.4,5.4-2.7,5.1-3.7
			c-0.5-0.8,3.5-2.1,3.2-1.3c0,0.5,0.3,0.5,0.5,0.3c1.3-1.3,3.2-1.6,4.8-2.7c1.6,1.3-0.3,1.9,2.7,2.1c0,0,0.3,0.3,0.3,0.5
			c-0.3,0.5-1.9,1.3,0.3,1.1l0,0c0.5,1.6,1.3,0.5,1.3,0.5c0,1.1-2.1,0.8-6.7,2.9l-7.2,4.3c-0.3-1.1-3.2-1.1-2.1-0.5
			c2.1,1.3-0.3,4-1.3,2.9C349.5,707.8,352.7,706.7,352.2,705.6z M341.7,688.5c-0.8,0.3-5.9,2.4-2.7,0.3c2.7-1.6,6.2-2.4,8.8-4
			c1.6,0.3,2.1,3.2,2.1,3.2c-1.1-0.5-1.3-2.4-1.9-2.4C345.7,685.8,343.6,687.4,341.7,688.5z M343.6,693.8c-1.1,1.1-1.9-2.1-1.9-2.7
			C342.3,691.2,344.7,692.8,343.6,693.8z M343.1,673.5c-0.3-1.1-2.1-4.8-4-4c0.8-0.5-1.6-3.5-2.9-6.2c0.3-1.1-0.3-2.7-0.8-3.7
			c0.8-0.3,1.3-1.1,1.1-1.9h0.3c-0.5,3.7,2.4,7.8,4.5,10.7c1.3,1.9,2.1,4.3,3.5,6.4c-0.5,0.5,0,0.8-1.1,0.8c0-0.5-0.3-1.1-0.5-1.6
			C343.1,674,343.1,673.8,343.1,673.5z M333.4,650.5c0.3-0.3,0.5-0.3,0.5-0.5c0.3,0.5,0.8,1.9,1.3,2.1c-1.1,0.5-1.9,1.3-2.4,1.9
			c-0.3,0-0.5,0.3-0.5,0.3c-0.8,0.3-1.3,0.5-1.9,0.5c0.3-1.3,0.5-3.5,2.1-4c0.3,0.3,1.1,1.9,1.3,1.6
			C334.5,651.6,333.4,651,333.4,650.5z M340.1,646.5c0.8-0.3,3.2,0,1.6,0.5c-1.1,0.5,1.3,1.9,0,2.4c-1.3,0.8,2.7,1.3-0.8,2.9
			c0-0.3-0.8-2.9-1.6-1.6l0,0c0.8-0.5-0.8-2.1-1.3-2.7c0.5-0.3-0.3-0.5,1.1-2.1c0.8-0.8-1.1-0.3-1.3-0.3c0-0.3,0-0.3,0-0.5
			c0.3,0,0.5-0.3,0.8-0.5c0,0.3,0.3,0.3,0.3,0l0.8,1.1C339.3,645.9,339.6,646.5,340.1,646.5z M347.3,642.7c1.1,0.5,2.4,1.9,2.1,3.2
			c0,0.8-1.6,0.3-1.1-0.3C349.5,645.1,347.1,643.5,347.3,642.7z M347.3,641.9L347.3,641.9l-1.1-0.5c0.3,0,0.8-0.3,1.1-0.3
			C347.3,641.4,347.3,641.7,347.3,641.9z M346.8,660.1c2.4,0.3,0.5,0.8-0.3,0.3c-0.3,0-1.1,0.3,0,1.1c0,2.7,2.7,4.5,5.4,3.2
			c0.3,1.1-3.7,0.8-2.9,1.9c2.1,3.5,2.9,7.2,4.3,11.2l-4.5-10.7c-1.3-2.4-4.8-10.2-7-11c0.8-1.1-5.1,0.3-3.7,1.6
			c1.1,1.1,7.8,17.4,9.9,21.1c1.1,1.9,1.6,2.4,0.3,2.9c-2.4-8.6-9.1-15.5-10.7-24.6l0,0c1.1-1.3,0.3-2.1,4.3-3.2
			c0,0.5-0.3,1.6,0.8,1.3C345.5,654,345.2,660.7,346.8,660.1z M354.6,656.1l-0.3-0.3c0.8-0.3,0.8-0.3,1.9,1.6
			c0.8,1.3-1.1,1.1-1.9,1.6c-0.5,0.3,0,0.8,0.3,1.3c-1.1,0.5-1.1,0.5-1.9-0.5C354.3,659.1,355.9,658,354.6,656.1z M357.8,686.4h0.3
			c0.3,0.8,4,4,4,5.6c0,0.5,0,1.1,0.3,1.3c-0.3,0-0.3,0-0.5,0C362.1,690.4,358.9,688.5,357.8,686.4z M354.6,679.4
			c1.3,0.3,1.3-0.3,2.1,0.8c-2.4,0-1.9,1.1-1.3,1.1h0.3c-0.5,0.5-0.3,1.3,0.5,1.1l0.8-0.3l0.5,0.5c-0.3,0.8,1.3,0.8-0.3,3.2
			l-3.5-7.5C354,678.9,354.3,679.4,354.6,679.4z M353.5,674.8c0.5,0.8,1.1,1.6,0.8,2.7C353.8,676.7,353.8,675.7,353.5,674.8z
			 M356.4,670.3c-2.1-0.3,1.9-1.9,1.9-1.9s0.3,0,0.3-0.3c1.6,2.9-1.9,4.8-1.6,3.5C357,671.1,357,670.3,356.4,670.3z M362.1,685.8
			c-0.8-0.8-0.8-1.9-0.8-2.7c0.3,0,1.3-0.3-0.3-1.1c-1.3-0.5,0.3-1.6,1.1-1.6c0.3,0.5,0.3,0.8,0.8,1.1
			C362.1,682.9,362.1,684.2,362.1,685.8z M362.1,678.1c-1.1,0.5-3.7-4-1.6-4c1.1,1.1,1.1,2.7,2.1,4
			C362.3,677.8,362.1,677.8,362.1,678.1z M361,670.3c0,0,0,0-0.3,0c-1.9-3.5-0.8-3.5-3.5-2.9c-0.5-0.5-0.3-0.8-0.5-1.3l1.3-0.5
			C358.6,665.7,362.6,669.8,361,670.3z M355.6,664.9c0-0.8-2.1,0-1.1-1.1c0.8-0.5,1.9-0.8,2.7-1.3c0,0.8,0,1.9,0.5,2.4
			C357.2,665.5,355.9,665.7,355.6,664.9z M357.2,652.6c-0.3,0.3-0.5,0.3-0.5,0.5c-0.3,0-0.3,0-0.5,0c0-0.5-2.1-1.6-0.8-2.7h0.3
			C355.9,650.8,357.5,652.1,357.2,652.6z M352.7,672.7c0-0.3-0.3-0.8-0.3-1.3C353.2,671.6,353,672.2,352.7,672.7z M352.7,659.1
			l-0.8-1.3c0.5-0.3,1.9-0.5,2.1-1.1C354.8,658,353.8,658.5,352.7,659.1z M338.8,650.5c-0.3,0-0.3,0.3-0.3,0.3c-0.3,0-0.5,0-0.8,0
			c0-0.5-1.3-1.9-2.4-1.3l1.9-0.8C337.7,649.2,338.2,650,338.8,650.5z M339.3,652.1c1.1,1.1,0,0.8-0.5,1.3c-0.3-1.1-3.5,0-2.9,0.5
			h-0.5l0,0c-0.3-0.3-0.5-0.5-0.8-0.3C335.8,652.6,337.7,651.6,339.3,652.1z M334.5,654.2l0.3,0.8l0,0c-0.5,0-0.5-0.3-0.8-0.5
			c0-0.3,0.3-0.5,0.5-0.8C334.2,654,334.2,654.2,334.5,654.2z M334,656.9c0.5-0.3,0.3-0.5,0.3-0.8c2.9,0.5,0.3,0.8-1.6,1.6
			C332.6,657.2,332.6,656.9,334,656.9z M333.2,658.5c0.5-0.3,1.1-0.5,1.6-0.8c0.3,0.3,1.9,1.1-0.8,1.6c-2.1,0.3-2.1,1.1-4,1.6
			C327.8,661.7,331.3,659.3,333.2,658.5z M345.7,680.5c0.8-0.3-0.5-2.4-1.1-4c0.3-0.3,0.3-0.3,0.5-0.5c0.5,1.6,1.3,3.2,1.9,4.8
			c-0.5-0.8-4.5,1.1-5.6,1.3C343.1,681.5,344.4,680.7,345.7,680.5z M353.2,698.7c2.4-1.3,5.1-2.7,8-3.2c0,0,0.3-0.3,0.3-0.5
			c-0.8-1.9,1.3-0.3,1.6-0.3c-0.3,0-0.3,0.3-0.3,0.3c-1.1,0.5-11,4.3-10.7,5.4c-0.8,0.5-1.6,0.8-2.1,1.3
			C349.2,701.1,352.7,699.2,353.2,698.7z M363.1,683.9c0.3-0.3,0.3-0.5,0.3-0.8c0,0,0,0,0.3,0.3L363.1,683.9z M363.9,679.1
			c0.5,0.5,1.1,0.8,1.1,1.9c-0.3,0-0.5,0-0.8,0c0-0.3,0-0.3-0.3-0.3C363.9,680.2,363.9,679.7,363.9,679.1z M366.3,687.4l-1.1,0.8
			c-1.9,0.5-1.6-4.3,0.3-3.2L366.3,687.4z M366.3,688.2c0.5,0.5,1.9,0.5,1.1,1.3c-0.8,0.8-1.3-0.3-1.1-1.1
			C366.3,688.5,366.3,688.5,366.3,688.2z M366.3,722.5c-3.2,2.1-3.5,2.7-3.5,0.5c2.4-0.5,4.3-2.1,6.4-3.2c1.1-0.5,2.4,0.3,0.8,0.8
			C368.8,721.1,367.7,721.7,366.3,722.5z M368.2,724.1c-0.5,0.3-1.6,1.1-2.4,0.8c0,0,0-0.3-0.3-0.5l0,0c0.3-0.3,0.5-0.5,0.8-0.8
			c0.8,0.5,0.5-0.3,0.8-0.5C368.2,721.7,369.8,723,368.2,724.1z M370.6,708.8c-1.3,0.8-3.2,0.8-4.5,1.3c-3.5,1.3-5.9,3.7-9.6,4.5
			c0.5-0.5,1.9-1.3,1.9-1.6c4-1.3,7.8-3.5,11.2-5.4C370.4,707.5,370.9,707.8,370.6,708.8z M358.3,706.4l2.9-1.6
			c0,0.5,0.3,0.8-0.3,1.3l-6.7,4.3l-0.5-0.3l0.3-0.3C355.1,710.4,358.3,706.7,358.3,706.4z M356.7,712c1.3-0.8,1.1-1.3,3.7-2.4
			c2.1-1.1,4.8-1.1,6.7-2.4c1.1-0.8,1.3-1.6,2.7-1.6v0.5c-2.1,1.3-11.2,7.2-13.6,6.4C356.2,712.6,356.4,712.3,356.7,712z
			 M370.1,690.6c-0.3,0.3-1.6,0.8-2.1,0.3c0.8-0.3,1.3-0.5,2.1-1.1C370.4,690.1,370.4,690.4,370.1,690.6z M352.2,715.5
			c0.3,0,0.3,0.3,0.3,0.3c0,0.3-0.3,0.5-0.3,0.5c-0.3-0.8-1.1-0.3-1.6,0c0.5-0.5,1.1-1.3,1.3-1.9
			C351.9,714.7,351.9,715.3,352.2,715.5z M350.8,729.4c1.1,0.3,1.3-0.3,0.5,0.8c0-0.5-0.8-0.3-1.1-1.1
			C350.6,729.2,350.6,729.4,350.8,729.4z M357.8,724.4c0.3,0.3,0.5,0.5,0.8,1.1C357.8,725.7,355.9,726.2,357.8,724.4z M358.3,722.7
			c-0.3,0.3-0.8,0.3-1.3,0.5c-1.3-1.1,0.3-4.3,1.6-2.9C359.4,721.1,359.9,722.5,358.3,722.7z M353.8,717.1c-0.5,0.5-1.1,0.8-1.3,1.6
			c0.3-0.8,0.5-1.6,0.8-2.7c0.5,0.8,2.1-0.8,2.7-1.1c-0.3,1.1,2.1,0.3,2.7,0c0.3,0.3,4.8-1.3,5.4-1.6c0.3-0.3,0.5-0.3,0.5,0.5
			c-0.5,0.5,0.5,1.6,0.5,2.1c0,1.1,2.7,0,2.1-0.3c-1.6-1.9,1.3-1.3,0.8-0.3c-0.3,0.3,0,0.3,0,0.5c-1.3,0.3-2.4,1.1-3.5,1.6
			c-0.3-0.3-0.5-0.3-0.8,0c0.8-1.3,0-3.7-0.8-3.5C359.9,715.8,356.4,715,353.8,717.1z M361.3,727.3c1.1-1.1,2.4-1.6,3.7-2.4
			c0,0.3,0.3,0.5,0.5,0.8c-2.1,1.3-3.7,2.4-4.5,1.6C361,727.3,361,727.3,361.3,727.3z M370.6,725.4c1.9-0.5,4.3-2.1,6.7-1.6
			c-4,0.3-7.8,2.4-11,4.5c-0.5-0.3-1.6,0-1.9,0C366.1,726.8,368.2,725.7,370.6,725.4z M372.2,715c0-1.1,2.4-0.8,3.2-0.8
			c1.3,0-0.5-1.9,1.6-2.4c1.3-0.3,1.9,1.3,0,1.9c-1.1,0.3-1.1,1.9-0.8,3.2c-0.8-0.3-1.6-0.5-2.4-0.8c0-0.5-1.3-0.5-1.9-0.5
			L372.2,715z M372.2,720.6c0-0.3,0.5-0.3,0.8-0.3C373.3,722.2,371.4,721.7,372.2,720.6z M376.8,717.1c0.8-1.3,0.3-4.8,2.9-0.8
			c0,0,1.3,2.1,0.8,2.1c-0.5,0-1.1-0.8-1.6-0.5C378.1,717.7,377.6,717.4,376.8,717.1z M382.9,711.5c0.5-0.3,0-0.8-0.3-1.1
			c3.2,2.7,2.7,7.8,0.8,9.6c-1.3,1.3-3.2,1.3-4.8,1.9c1.9-1.1,4.5-1.3,5.4-3.5C384.5,717.1,384,713.4,382.9,711.5z M374.1,696.3
			c1.6,2.9-1.6,4.8,1.6,3.5c0.8,1.9-1.3,2.1-2.7,2.1c0-1.6,1.3-3.7-0.3-5.1c-0.8-1.1-0.5,0.8-0.5,1.1
			C369.6,698.4,371.4,692,374.1,696.3z M351.4,639.8c4.5,8,7.8,14.2,11,23.3l5.6,13.4c0.8,2.1,0.8,4.5,2.4,4.8
			c1.3,0,2.4,3.5,2.9,5.1l-0.5,0.5l-1.6-4c0-0.5-0.8-0.5-0.8-0.3c-0.3,0.8,0.3,1.9,0.5,2.9l-5.6-12.8c-1.6-5.4-2.7-6.2-1.3-2.7
			c-0.8,0.3-1.1,1.1-1.9-0.5c0-0.5-0.3-1.1-0.5-1.6l0,0c0.3,0,0.3,0,0.3,0l0,0c1.3-0.3-0.3-3.5-0.5-4c-1.1-4.8,0-2.9-2.1-7.5
			c-0.5-1.1-1.6-2.4-1.3-3.5c0.3-0.8-1.3-2.9-1.9-3.2C355.6,648.6,350,641.4,351.4,639.8z M353.8,655l-2.4,1.1c0-1.1-1.6-3.2-0.8-4
			C351.4,651,353.2,654,353.8,655z M350,637.6h0.3c0,0.3,0.3,0.5,0.3,0.8c-0.3,0.8-2.4,1.3-2.9,1.3c-6.2,2.4-5.9,2.4-12,5.9
			c-3.2,1.9-6.7,3.7-10.4,4.5c0-0.3-0.3-0.3-0.3-0.3c6.2-3.5,11.5-6.4,19.3-8.8C346.5,640.3,346.3,637.4,350,637.6z M322.7,647
			c2.1-2.9,8.3-4.8,12-6.7c0,0.3,0.3,0.5,0.5,0.8c-1.9,1.1-4.3,1.9-6.2,2.9C327,645.1,324.9,646.2,322.7,647z M138.3,431.9v-0.5l0,0
			c0,0.3,0,0.3,0,0.3l0,0c1.6,1.3,4,9.6,3.5,9.9c-1.3,0.8,1.9,2.7,2.4,2.7c-2.9,0.5-3.2-2.7-4-4.5
			C139.4,437.2,138.6,434.3,138.3,431.9z M138.9,437.7c-0.5,0.3-0.8-0.3-0.5-0.8h0.5V437.7z M163,221c2.7,1.3,14.2,2.9,17.7,2.9
			l-0.3,0.3c-1.6-0.5-3.7,0-5.4-0.3C172.9,223.9,164.3,222.6,163,221z M158.4,436.1c-1.3,0-0.5-1.3,1.1-1.3h0.3
			c0.8,0.3,1.6,0.3,2.4,0c0.3,1.3-2.4,1.3-3.5,1.3l0,0H158.4z M161.6,434c0-1.1-0.8-4.8-3.2-5.4l0,0c2.7,1.1,1.6,4.5,2.4,5.6
			c-0.3,0-0.5,0-0.8,0c0-0.5-1.3-4.8-2.1-5.1l-9.1,0.3c-0.5,0-0.5,0.5-0.3,0.8c-0.5,0-0.8,0-1.3,0c0.3-1.9-2.4-2.7,3.5-2.7
			c2.4,0,5.1,0,7.5,0.3C160.8,428.6,162.7,432.7,161.6,434z M130.6,426.8c0,1.3-5.1-1.3-5.6-2.1C127.1,425.4,128.7,426,130.6,426.8z
			 M126.6,434.3c-1.3-3.5,2.9-5.1,5.9-4.8c1.3,0.3,3.2,0.3,4.8,0.8c0,0.3,0,0.5,0,0.8C134.1,430.3,126,428.6,126.6,434.3z
			 M133.3,428.6c0.3-0.5-0.3-0.8,0-1.9c1.9-0.5,8.3,1.1,10.7,1.3c1.1,0.3,1.3,1.3,1.9,2.1H144c0-1.6-5.9-1.9-6.4-1.1
			C136.2,428.9,134.9,428.6,133.3,428.6z M140.2,429.7c3.7,0.5,2.1,0,1.6,2.1c-0.8-0.5-2.9-1.6-3.7-1.3
			C137.8,429.2,139.9,429.7,140.2,429.7z M144.2,438c-0.3-0.3,0-0.5,0-0.5c0.3,0.3,1.1,0.5,1.1,0C146.1,438.5,144.5,438.8,144.2,438
			z M152.5,438c-0.5,0.5-1.3-0.3-0.8-0.8c0.3,0.5,0.8,0.3,0.8-0.3C152.8,437.2,152.8,437.7,152.5,438z M162.2,429.7l-0.5-0.5
			c5.6-0.8,10.7-3.2,16.6-4c0,0.3,0,0.3,0.3,0.5C177.4,426.2,164,429.4,162.2,429.7z M156,226.6c0.3-4,2.1-24.6,2.4-27.6
			c2.1-21.7,36.1-24.1,53-19.8c17.1,4.3,17.4,13.6,19.3,24.6c1.3,7,0.3,5.9,5.9,8.3c3.5,1.3,9.9,4.3,11,5.6c1.3,1.1-1.6,7-11.5,7
			c-8,0-17.9-2.7-23.3-4.3c2.4-0.3,4.3-1.6,6.2-2.9c4-2.9,14.7-5.1,12-10.4c-1.1-2.1-1.6-6.7-5.1-5.1c-1.3,0.5-2.4-0.5-3.7-0.5
			c-1.6,0.3-2.7,1.9-4.5,0.5c-5.4-4.3-1.1-4.3-10.2-5.1c-6.2-0.5-12-0.3-18.2-0.8c-1.6-0.3-19.5-1.9-19.8-2.4
			c-0.3-2.9,7.5-7.2,9.4-8.3c0.8-0.5,0.3-1.3-0.5-1.1c-11.5,5.6-9.9,8.6-13.9,11.8c-1.6-0.8,1.3-4,2.1-5.1c0.8-1.3-1.9,0.5-2.1,0.5
			c0-1.9,1.9-3.7,1.3-4.3c0-0.3,0-0.3,0-0.3c-0.8-0.5-1.6,1.6-1.9,2.1c-6.4,8.3-5.4,11.5-6.2,21.9c-0.3,4-1.6,16.6-0.3,20.1
			C156.5,230.6,156,229.8,156,226.6z M91,233.8c-0.5-0.3-1.1-0.5-1.6-0.8c3.5-8,46.3-108.9,54.9-126.8c9.1-18.5,40.7-89.9,42.8-94.2
			c1.9-4,4.3-1.9,3.2,1.1c-0.8,2.9-39.1,84.8-49.8,110.3C130,147.7,93.9,227.1,91,233.8z M130.8,123.3
			c13.1-33.7,47.4-110,50.8-116.7c4-8,20.9-2.4,17.4,7.5c-4,11.5-45,97.9-53,114.3c-8,16.1-44.4,91.5-51.1,106.2
			c-0.5-0.3-1.1-0.3-1.3-0.3c6.4-14.5,99-217.8,100.4-220c1.1-2.4,4-2.7,2.9,0.8c-1.6,4-33.7,73.6-37.7,84
			c5.4-9.6,38.5-83,39.1-85.4c2.4-9.1-11.5-13.9-15.8-7c-1.3,1.9-38,86.7-42.3,97.1c-4,9.6-48.4,116.9-53.3,128.2
			c-0.3,0-0.5-0.3-0.8-0.3C94.7,213.2,118.8,154.1,130.8,123.3L130.8,123.3z M72.2,296.2c-0.5-1.9-1.9-1.3-2.9-2.1
			c-5.4-5.1-11.5-2.4-11-2.4c2.9,0,9.9,0.5,10.2,4.8c-1.3-1.9-10.7-6.2-11.5-2.1c-4.5-7.8,11.8-7.5,15,0
			C72,294.8,72.2,295.6,72.2,296.2z M320.6,672.2c0,0-4-5.9-2.9-6.7c0.3,0,0.5-0.3,0.5-0.5c0,0.5,1.3,1.3,0.3,2.4
			c-0.3,0,0,0.5,0.3,0.5l2.4,4C321.1,671.9,320.9,672.2,320.6,672.2z M321.7,667.9c0.3-0.8-1.6-0.3-1.6,0.3l-0.3-0.5
			c5.9-1.9,12.8-7.2,15-7.8c0.3,0.8,0.8,1.9,0.5,2.7c-1.3-3.2-1.3-1.9-9.1,2.9c-0.5,0.3-1.3,0.3-1.9,0.8
			C323.3,667.4,323.5,669,321.7,667.9z M331.3,673.5C328.6,674.6,331.6,671.1,331.3,673.5z M330.2,685.8c-2.9-4-5.6-8.3-7.2-12.8
			c-0.3-0.3-0.5-0.5-0.8-0.8c1.3-0.3,1.9,2.1,2.4,2.9c1.3,4,3.7,7.8,6.2,11.5C330.5,686.4,330.5,686.1,330.2,685.8z M329.7,681.5
			c0-0.3,0-0.8,0.3-1.3C330.8,679.4,332.4,681.3,329.7,681.5z M332.6,684.5c-2.4,0-0.8-5.1,0.5-1.9c0,0-1.6,1.6-0.3,1.1
			C333.7,683.4,333.7,684.5,332.6,684.5z M331.8,675.1c-4.8,2.1-2.7-0.3,0.3-1.1l7-3.7c0.5,0.3,1.3-0.8,3.2,3.2
			c-0.3,0-0.3,0.3-0.5,0.3C337.2,669.2,342.3,670.6,331.8,675.1z M336.9,682.3c1.1,0.3-0.8,2.1-1.1,0.8c0-0.5,0.3-0.5,0.5-0.8l0,0
			C336.6,682.3,336.9,682.3,336.9,682.3z M335.6,681c-1.1,0.3-0.8-1.3,0-0.8l0.3,0.5C335.6,680.7,335.6,680.7,335.6,681z
			 M341.7,705.6c-0.8-2.4-4.5-6.7-4.3-6.7c0.5-0.5,0.5-1.9,0-2.1c-1.6-1.3-2.1-3.5-2.9-5.4c3.2,4.3,3.5,6.2,5.9,10.4
			c0.8,1.1,1.6,2.1,2.1,3.5C342.3,705.4,342,705.4,341.7,705.6z M342.5,700.5c-0.8-1.1,0-1.1,1.1-0.8c-0.5,1.3-0.8-0.3,0.3,1.9
			C343.1,701.9,342.8,701.1,342.5,700.5z M345.7,725.7c-1.6-5.1-1.1-11-2.4-15.5c-0.8-2.1-0.3-2.1,0-2.9c0.8,1.1,0.3,2.7,1.6,3.5
			c0.3,0.3,2.4,2.4,2.4,1.1c0-1.1,3.2-1.3,4-0.8c-2.9,0-5.1,0.5-4.5,3.7c0,0.8,0,1.6-0.3,2.1c-0.5,4.8,1.3,8.8,0.3,11.8
			C346.5,727.6,346,726.8,345.7,725.7z M349.2,727.3l-0.8,4.5c-0.5-0.3-0.8-0.8-1.3-1.1c0.3-1.9,1.6-2.7,1.9-5.1l0.8,0.5
			L349.2,727.3z M357,736.4c-6.2,2.1-6.7-3.2-7.5-4V731c0.8,2.4,3.5,4,5.9,4c6.7-0.3,11.5-9.6,21.7-9.6c4.8-0.3,10.2,0.5,11.5-5.6
			c1.1,0.3,2.1-1.9,0.3-1.1c0-0.5,0-1.1,0-1.6c0.8-0.5,1.9-1.3,0-0.8c0-0.3,0-0.5,0-0.8c1.1-0.5,0.8-1.1-0.3-0.8v-0.5
			c0.8-0.3,0.5-1.1-0.3-0.8c-0.3-0.3-0.3-0.5-0.5-1.1c0,0.3,0,0.3,0,0.3c3.7,1.9,5.4,7.8,0.3,11.8c1.1-1.1,2.1-2.7,2.7-4
			c0.5-1.6-4.3,4-5.6,4.8c-4.5,2.9-13.1,0-20.1,5.6l0,0c4.3-2.7,9.9-2.9,15-2.9c-5.1,0.8-11.5,0.8-15.5,4.3
			C362.3,733.7,359.7,735.6,357,736.4z M203.1,181.9c0,0,0.5,0,0.5-0.3c-0.3,0-0.5,0-0.8,0L203.1,181.9z"/>
	</g>
</g>
</svg>
